# Blender 3.4.1
# www.blender.org
mtllib panel_A1.mtl
o Text
v -1.424699 1.199376 -0.080000
v -1.440039 1.178888 -0.100000
v -1.442983 1.181092 -0.080000
v -1.134669 1.181092 -0.080000
v -1.138203 1.178973 -0.100000
v -1.152952 1.199376 -0.080000
v -1.134669 -0.927953 -0.080000
v -1.152952 -0.946236 -0.080000
v -1.137613 -0.925749 -0.100000
v -1.424699 -0.946236 -0.080000
v -1.442983 -0.927953 -0.080000
v -1.439449 -0.925833 -0.100000
v 0.478666 1.211960 -0.080000
v 0.472263 1.193677 -0.100000
v 0.452955 1.195253 -0.080000
v 0.684642 1.195146 -0.080000
v 0.665389 1.193677 -0.100000
v 0.659177 1.211960 -0.080000
v 1.592074 -0.929422 -0.080000
v 1.580972 -0.946236 -0.080000
v 1.571566 -0.927953 -0.100000
v 1.302933 -0.946236 -0.080000
v 1.277458 -0.929427 -0.080000
v 1.296714 -0.927953 -0.100000
v 0.995806 -0.313878 -0.080000
v 1.026153 -0.295595 -0.100000
v 1.021281 -0.330688 -0.080000
v 0.120015 -0.313878 -0.080000
v 0.094191 -0.330534 -0.080000
v 0.089940 -0.295595 -0.100000
v -0.177019 -0.929580 -0.080000
v -0.202843 -0.946236 -0.080000
v -0.196352 -0.927953 -0.100000
v -0.491737 -0.929530 -0.080000
v -0.471027 -0.927953 -0.100000
v -0.480882 -0.946236 -0.080000
v 0.580619 0.723152 -0.080000
v 0.566203 0.723349 -0.080000
v 0.574275 0.786417 -0.100000
v 0.235013 -0.020323 -0.080000
v 0.245858 -0.037025 -0.080000
v 0.199418 -0.055309 -0.100000
v 0.887560 -0.020126 -0.080000
v 0.921870 -0.055309 -0.100000
v 0.876255 -0.037025 -0.080000
v -1.424699 1.199376 -0.020000
v -1.442983 1.181092 -0.020000
v -1.440039 1.178888 -0.000000
v -1.134669 1.181092 -0.020000
v -1.152952 1.199376 -0.020000
v -1.138203 1.178973 -0.000000
v -1.134669 -0.927953 -0.020000
v -1.137613 -0.925749 -0.000000
v -1.152952 -0.946236 -0.020000
v -1.424699 -0.946236 -0.020000
v -1.439449 -0.925833 -0.000000
v -1.442983 -0.927953 -0.020000
v 0.478666 1.211960 -0.020000
v 0.452955 1.195253 -0.020000
v 0.472263 1.193677 -0.000000
v 0.684642 1.195146 -0.020000
v 0.659177 1.211960 -0.020000
v 0.665389 1.193677 -0.000000
v 1.592074 -0.929422 -0.020000
v 1.571566 -0.927953 -0.000000
v 1.580972 -0.946236 -0.020000
v 1.302933 -0.946236 -0.020000
v 1.296714 -0.927953 -0.000000
v 1.277458 -0.929427 -0.020000
v 0.995806 -0.313878 -0.020000
v 1.021281 -0.330688 -0.020000
v 1.026153 -0.295595 -0.000000
v 0.120015 -0.313878 -0.020000
v 0.089940 -0.295595 -0.000000
v 0.094191 -0.330534 -0.020000
v -0.177019 -0.929580 -0.020000
v -0.196352 -0.927953 -0.000000
v -0.202843 -0.946236 -0.020000
v -0.491737 -0.929530 -0.020000
v -0.480882 -0.946236 -0.020000
v -0.471027 -0.927953 -0.000000
v 0.580619 0.723152 -0.020000
v 0.574275 0.786417 -0.000000
v 0.566203 0.723349 -0.020000
v 0.235013 -0.020323 -0.020000
v 0.199418 -0.055309 -0.000000
v 0.245858 -0.037025 -0.020000
v 0.887560 -0.020126 -0.020000
v 0.876255 -0.037025 -0.020000
v 0.921870 -0.055309 -0.000000
vn -1.0000 -0.0000 -0.0000
vn -0.0000 -0.0000 -1.0000
vn -0.9138 0.4063 -0.0000
vn -0.9243 -0.3817 -0.0000
vn -0.0000 -1.0000 -0.0000
vn 0.9110 -0.4124 -0.0000
vn -0.0000 -0.0000 1.0000
vn 1.0000 -0.0000 -0.0000
vn -0.0000 1.0000 -0.0000
vn 0.9196 0.3928 -0.0000
vn 0.9135 -0.4068 -0.0000
vn -0.9194 -0.3934 -0.0000
vn -0.6957 0.6957 -0.1791
vn 0.6934 0.6934 -0.1960
vn 0.6957 -0.6957 -0.1791
vn -0.6934 -0.6934 -0.1960
vn -0.4688 0.7215 -0.5095
vn 0.4742 0.7182 -0.5093
vn 0.6214 -0.4103 -0.6674
vn -0.4740 -0.7183 -0.5093
vn -0.2921 -0.4426 -0.8478
vn 0.2894 -0.4488 -0.8455
vn 0.4663 -0.7230 -0.5096
vn -0.6198 -0.4027 -0.6735
vn -0.0041 -0.3018 -0.9534
vn 0.3175 0.2061 -0.9256
vn -0.3192 0.2136 -0.9233
vn -0.6957 0.6957 0.1791
vn 0.6934 0.6934 0.1960
vn 0.6957 -0.6957 0.1791
vn -0.6934 -0.6934 0.1960
vn -0.4688 0.7215 0.5095
vn 0.4742 0.7182 0.5093
vn 0.6214 -0.4103 0.6674
vn -0.4740 -0.7183 0.5093
vn -0.2921 -0.4426 0.8478
vn 0.2894 -0.4488 0.8455
vn 0.4663 -0.7230 0.5096
vn -0.6198 -0.4027 0.6735
vn -0.0041 -0.3018 0.9534
vn 0.3175 0.2061 0.9256
vn -0.3192 0.2136 0.9233
vn 0.9871 0.0001 -0.1599
vn -0.0001 0.6993 -0.7148
vn 0.0001 -0.6993 -0.7148
vn -0.9871 -0.0001 -0.1599
vn 0.6788 0.2899 -0.6747
vn -0.0000 0.7381 -0.6747
vn -0.6744 0.2999 -0.6747
vn -0.6822 -0.2817 -0.6747
vn 0.6742 -0.3003 -0.6747
vn -0.0000 -0.7381 -0.6747
vn -0.6786 -0.2903 -0.6747
vn 0.6724 -0.3044 -0.6747
vn 0.9871 0.0001 0.1599
vn -0.0001 0.6993 0.7148
vn 0.0001 -0.6993 0.7148
vn -0.9871 -0.0001 0.1599
vn 0.6788 0.2899 0.6747
vn -0.0000 0.7381 0.6747
vn -0.6744 0.2999 0.6747
vn -0.6822 -0.2817 0.6747
vn 0.6742 -0.3003 0.6747
vn -0.0000 -0.7381 0.6747
vn -0.6786 -0.2903 0.6747
vn 0.6724 -0.3044 0.6747
vn -0.7071 0.7071 -0.0000
vn 0.7071 0.7071 -0.0000
vn 0.7071 -0.7071 -0.0000
vn -0.7071 -0.7071 -0.0000
vn -0.5449 0.8385 -0.0000
vn 0.5510 0.8345 -0.0000
vn 0.8345 -0.5510 -0.0000
vn -0.5507 -0.8347 -0.0000
vn 0.5420 -0.8404 -0.0000
vn -0.8385 -0.5449 -0.0000
vn -0.0137 -0.9999 -0.0000
vn 0.8387 0.5446 -0.0000
vn -0.8312 0.5560 -0.0000
vt 0.019767 0.000000
vt 0.006366 0.000000
vt 0.008521 0.000000
vt 0.336174 0.000000
vt 0.332682 0.000000
vt 0.313566 0.000000
vt 0.663826 0.000000
vt 0.686434 0.000000
vt 0.660301 0.000000
vt 0.980233 0.000000
vt 0.991479 0.000000
vt 0.986670 0.000000
vt 0.008422 0.000000
vt -0.010739 0.000000
vt 0.002723 0.000000
vt 0.045997 0.000000
vt 0.005419 0.000000
vt 0.100779 0.000000
vt 0.091689 0.000000
vt 0.091578 0.000000
vt 0.199221 0.000000
vt 0.205812 0.000000
vt 0.165388 0.000000
vt 0.298807 0.000000
vt 0.258543 0.000000
vt 0.189994 0.000000
vt 0.209206 0.000000
vt 0.294189 0.000000
vt 0.302658 0.000000
vt 0.296570 0.000000
vt 0.402004 0.000000
vt 0.514475 0.000000
vt 0.442616 0.000000
vt 0.426005 0.000000
vt 0.396570 0.000000
vt 0.397342 0.000000
vt 0.497996 0.000000
vt 0.502634 0.000000
vt 0.597836 0.000000
vt 0.528619 0.000000
vt 0.503488 0.000000
vt 0.597366 0.000000
vt 0.605812 0.000000
vt 0.603488 0.000000
vt 0.694581 0.000000
vt 0.655975 0.000000
vt 0.717343 0.000000
vt 0.734137 0.000000
vt 0.690796 0.000000
vt 0.694189 0.000000
vt 0.804349 0.000000
vt 0.802149 0.000000
vt 0.744952 0.000000
vt 0.655881 0.000000
vt 0.725945 0.000000
vt 0.774319 0.000000
vt 0.897851 0.000000
vt 0.902741 0.000000
vt 0.875759 0.000000
vt 0.944092 0.000000
vt 0.882638 0.000000
vt 0.854971 0.000000
vt 0.995651 0.000000
vt 1.033266 0.000000
vt 0.942584 0.000000
vt 0.963290 0.000000
vt 0.997259 0.000000
vt 0.019767 0.000000
vt 0.008521 0.000000
vt 0.006366 0.000000
vt 0.336174 0.000000
vt 0.313566 0.000000
vt 0.332682 0.000000
vt 0.663826 0.000000
vt 0.660301 0.000000
vt 0.686434 0.000000
vt 0.980233 0.000000
vt 0.986670 0.000000
vt 0.991479 0.000000
vt 0.008422 0.000000
vt 0.005419 0.000000
vt -0.010739 0.000000
vt 0.002723 0.000000
vt 0.045997 0.000000
vt 0.100779 0.000000
vt 0.091578 0.000000
vt 0.091689 0.000000
vt 0.199221 0.000000
vt 0.298807 0.000000
vt 0.258543 0.000000
vt 0.165388 0.000000
vt 0.189994 0.000000
vt 0.209206 0.000000
vt 0.205812 0.000000
vt 0.294188 0.000000
vt 0.296570 0.000000
vt 0.302658 0.000000
vt 0.402004 0.000000
vt 0.397342 0.000000
vt 0.514475 0.000000
vt 0.442616 0.000000
vt 0.426005 0.000000
vt 0.396570 0.000000
vt 0.497996 0.000000
vt 0.597836 0.000000
vt 0.528619 0.000000
vt 0.503488 0.000000
vt 0.502634 0.000000
vt 0.597366 0.000000
vt 0.603488 0.000000
vt 0.605812 0.000000
vt 0.694581 0.000000
vt 0.694189 0.000000
vt 0.655976 0.000000
vt 0.717343 0.000000
vt 0.734137 0.000000
vt 0.690796 0.000000
vt 0.804349 0.000000
vt 0.655881 0.000000
vt 0.744952 0.000000
vt 0.725945 0.000000
vt 0.774319 0.000000
vt 0.802149 0.000000
vt 0.897851 0.000000
vt 0.875759 0.000000
vt 0.944092 0.000000
vt 0.882638 0.000000
vt 0.854971 0.000000
vt 0.902741 0.000000
vt 0.995651 0.000000
vt 0.997259 0.000000
vt 1.033266 0.000000
vt 0.942584 0.000000
vt 0.963290 0.000000
s 0
usemtl white_mat
f 3/3/1 11/11/1 57/79/1 47/69/1
f 9/9/2 2/2/2 5/5/2
f 39/53/2 35/48/2 14/16/2
f 21/26/2 14/15/2 17/19/2
f 15/17/3 34/45/3 79/112/3 59/81/3
f 21/23/2 26/32/2 44/64/2
f 37/51/4 43/63/4 88/130/4 82/118/4
f 21/27/2 24/30/2 26/35/2
f 26/34/2 30/40/2 42/59/2
f 28/37/5 25/31/5 70/98/5 73/104/5
f 33/44/2 35/49/2 30/41/2
f 22/28/5 20/22/5 66/94/5 67/95/5
f 31/42/6 29/38/6 75/108/6 76/109/6
f 65/89/7 60/82/7 83/119/7
f 53/75/7 51/73/7 48/70/7
f 65/90/7 83/121/7 90/133/7
f 83/120/7 60/84/7 81/116/7
f 65/92/7 63/87/7 60/83/7
f 65/91/7 90/132/7 72/100/7
f 65/93/7 72/103/7 68/96/7
f 72/102/7 86/125/7 74/106/7
f 74/105/7 86/126/7 81/114/7
f 77/110/7 74/107/7 81/117/7
f 72/101/7 90/134/7 86/128/7
f 86/127/7 83/122/7 81/115/7
f 10/10/5 8/8/5 54/76/5 55/77/5
f 7/7/8 4/4/8 49/71/8 52/74/8
f 21/24/2 39/54/2 14/14/2
f 6/6/9 1/1/9 46/68/9 50/72/9
f 21/25/2 44/65/2 39/55/2
f 19/21/10 16/18/10 61/85/10 64/88/10
f 18/20/9 13/13/9 58/80/9 62/86/9
f 40/57/11 38/52/11 84/123/11 85/124/11
f 45/67/9 41/58/9 87/129/9 89/131/9
f 53/75/7 48/70/7 56/78/7
f 30/39/2 35/46/2 42/60/2
f 27/36/12 23/29/12 69/97/12 71/99/12
f 26/33/2 42/62/2 44/66/2
f 36/50/5 32/43/5 78/111/5 80/113/5
f 42/61/2 35/47/2 39/56/2
f 1/1/13 2/2/13 3/3/13
f 4/4/14 5/5/14 6/6/14
f 7/7/15 8/8/15 9/9/15
f 10/10/16 11/11/16 12/12/16
f 13/13/17 14/16/17 15/17/17
f 16/18/18 17/19/18 18/20/18
f 19/21/19 20/22/19 21/26/19
f 22/28/20 23/29/20 24/30/20
f 25/31/21 26/35/21 27/36/21
f 28/37/22 29/38/22 30/40/22
f 31/42/23 32/43/23 33/44/23
f 34/45/24 35/49/24 36/50/24
f 37/51/25 38/52/25 39/55/25
f 40/57/26 41/58/26 42/61/26
f 43/63/27 44/66/27 45/67/27
f 46/68/28 47/69/28 48/70/28
f 49/71/29 50/72/29 51/73/29
f 52/74/30 53/75/30 54/76/30
f 55/77/31 56/78/31 57/79/31
f 58/80/32 59/81/32 60/83/32
f 61/85/33 62/86/33 63/87/33
f 64/88/34 65/93/34 66/94/34
f 67/95/35 68/96/35 69/97/35
f 70/98/36 71/99/36 72/102/36
f 73/104/37 74/107/37 75/108/37
f 76/109/38 77/110/38 78/111/38
f 79/112/39 80/113/39 81/116/39
f 82/118/40 83/122/40 84/123/40
f 85/124/41 86/128/41 87/129/41
f 88/130/42 89/131/42 90/133/42
f 4/4/43 7/7/43 9/9/43 5/5/43
f 1/1/44 6/6/44 5/5/44 2/2/44
f 8/8/45 10/10/45 12/12/45 9/9/45
f 2/2/46 12/12/46 11/11/46 3/3/46
f 16/18/47 19/21/47 21/26/47 17/19/47
f 13/13/48 18/20/48 17/19/48 14/15/48
f 14/16/49 35/48/49 34/45/49 15/17/49
f 39/55/50 44/65/50 43/63/50 37/51/50
f 38/52/51 40/57/51 42/61/51 39/56/51
f 41/58/48 45/67/48 44/66/48 42/62/48
f 25/31/52 28/37/52 30/40/52 26/34/52
f 20/22/52 22/28/52 24/30/52 21/27/52
f 23/29/53 27/36/53 26/35/53 24/30/53
f 29/38/54 31/42/54 33/44/54 30/41/54
f 32/43/52 36/50/52 35/49/52 33/44/52
f 51/73/55 53/75/55 52/74/55 49/71/55
f 48/70/56 51/73/56 50/72/56 46/68/56
f 53/75/57 56/78/57 55/77/57 54/76/57
f 47/69/58 57/79/58 56/78/58 48/70/58
f 63/87/59 65/92/59 64/88/59 61/85/59
f 60/83/60 63/87/60 62/86/60 58/80/60
f 59/81/61 79/112/61 81/116/61 60/84/61
f 82/118/62 88/130/62 90/133/62 83/121/62
f 83/122/63 86/127/63 85/124/63 84/123/63
f 86/128/60 90/134/60 89/131/60 87/129/60
f 72/102/64 74/106/64 73/104/64 70/98/64
f 65/93/64 68/96/64 67/95/64 66/94/64
f 68/96/65 72/103/65 71/99/65 69/97/65
f 74/107/66 77/110/66 76/109/66 75/108/66
f 77/110/64 81/117/64 80/113/64 78/111/64
f 3/3/67 47/69/67 46/68/67 1/1/67
f 6/6/68 50/72/68 49/71/68 4/4/68
f 7/7/69 52/74/69 54/76/69 8/8/69
f 10/10/70 55/77/70 57/79/70 11/11/70
f 15/17/71 59/81/71 58/80/71 13/13/71
f 18/20/72 62/86/72 61/85/72 16/18/72
f 19/21/73 64/88/73 66/94/73 20/22/73
f 22/28/74 67/95/74 69/97/74 23/29/74
f 27/36/74 71/99/74 70/98/74 25/31/74
f 28/37/75 73/104/75 75/108/75 29/38/75
f 31/42/75 76/109/75 78/111/75 32/43/75
f 36/50/76 80/113/76 79/112/76 34/45/76
f 37/51/77 82/118/77 84/123/77 38/52/77
f 40/57/78 85/124/78 87/129/78 41/58/78
f 45/67/79 89/131/79 88/130/79 43/63/79
f 9/9/2 12/12/2 2/2/2
o Plane
v 2.000000 -1.980000 0.020000
v 1.980000 -2.000000 0.020000
v 1.980000 -1.980000 0.000000
v -1.980000 -2.000000 0.020000
v -2.000000 -1.980000 0.020000
v -1.980000 -1.980000 0.000000
v 2.000000 1.980000 0.020000
v 1.980000 1.980000 0.000000
v 1.980000 2.000000 0.020000
v -2.000000 1.980000 0.020000
v -1.980000 2.000000 0.020000
v -1.980000 1.980000 0.000000
v 2.000000 -1.980000 0.080000
v 1.980000 -1.980000 0.100000
v 1.980000 -2.000000 0.080000
v -1.980000 -2.000000 0.080000
v -1.980000 -1.980000 0.100000
v -2.000000 -1.980000 0.080000
v 2.000000 1.980000 0.080000
v 1.980000 2.000000 0.080000
v 1.980000 1.980000 0.100000
v -2.000000 1.980000 0.080000
v -1.980000 1.980000 0.100000
v -1.980000 2.000000 0.080000
vn -0.0000 -1.0000 -0.0000
vn -0.0000 -0.0000 -1.0000
vn -1.0000 -0.0000 -0.0000
vn -0.0000 1.0000 -0.0000
vn -0.0000 -0.0000 1.0000
vn 0.5774 -0.5774 -0.5774
vn -0.5774 -0.5774 -0.5774
vn 0.5774 0.5774 -0.5774
vn -0.5774 0.5774 -0.5774
vn 0.5774 -0.5774 0.5773
vn -0.5774 -0.5774 0.5773
vn 0.5774 0.5773 0.5773
vn -0.5774 0.5773 0.5773
vn 0.7071 -0.0000 -0.7071
vn -0.0000 -0.7071 -0.7071
vn -0.7071 -0.0000 -0.7071
vn -0.0000 0.7071 -0.7071
vn 0.7071 -0.0000 0.7071
vn -0.0000 -0.7071 0.7071
vn -0.7071 -0.0000 0.7071
vn -0.0000 0.7071 0.7071
vn 0.7071 -0.7071 -0.0000
vn -0.7071 -0.7071 -0.0000
vn 0.7071 0.7071 -0.0000
vn -0.7071 0.7071 -0.0000
vn 1.0000 -0.0000 -0.0000
vt 0.000000 0.005000
vt 0.005000 0.000000
vt 0.005000 0.005000
vt 0.995000 0.000000
vt 1.000000 0.005000
vt 0.995000 0.005000
vt 0.000000 0.995000
vt 0.005000 0.995000
vt 0.005000 1.000000
vt 1.000000 0.995000
vt 0.995000 1.000000
vt 0.995000 0.995000
vt 0.000000 0.005000
vt 0.005000 0.005000
vt 0.005000 0.000000
vt 0.995000 0.000000
vt 0.995000 0.005000
vt 1.000000 0.005000
vt 0.000000 0.995000
vt 0.005000 1.000000
vt 0.005000 0.995000
vt 1.000000 0.995000
vt 0.995000 0.995000
vt 0.995000 1.000000
s 0
usemtl blackPanel
f 94/138/80 92/136/80 105/149/80 106/150/80
f 93/137/81 96/140/81 102/146/81 98/142/81
f 100/144/82 95/139/82 108/152/82 112/156/82
f 99/143/83 101/145/83 114/158/83 110/154/83
f 104/148/84 111/155/84 113/157/84 107/151/84
f 91/135/85 92/136/85 93/137/85
f 94/138/86 95/139/86 96/140/86
f 97/141/87 98/142/87 99/143/87
f 100/144/88 101/145/88 102/146/88
f 103/147/89 104/148/89 105/149/89
f 106/150/90 107/151/90 108/152/90
f 109/153/91 110/154/91 111/155/91
f 112/156/92 113/157/92 114/158/92
f 97/141/93 91/135/93 93/137/93 98/142/93
f 92/136/94 94/138/94 96/140/94 93/137/94
f 95/139/95 100/144/95 102/146/95 96/140/95
f 101/145/96 99/143/96 98/142/96 102/146/96
f 111/155/97 104/148/97 103/147/97 109/153/97
f 104/148/98 107/151/98 106/150/98 105/149/98
f 107/151/99 113/157/99 112/156/99 108/152/99
f 113/157/100 111/155/100 110/154/100 114/158/100
f 91/135/101 103/147/101 105/149/101 92/136/101
f 94/138/102 106/150/102 108/152/102 95/139/102
f 99/143/103 110/154/103 109/153/103 97/141/103
f 100/144/104 112/156/104 114/158/104 101/145/104
f 91/135/105 97/141/105 109/153/105 103/147/105
