# Blender 4.0.1
# www.blender.org
mtllib panel_2x2_inset.mtl
o 2x2_black_geo.001
v 0.990000 -0.973725 0.016275
v 0.973725 -0.990000 0.016275
v 0.973725 -0.973725 0.000000
v -0.973725 -0.990000 0.016275
v -0.990000 -0.973725 0.016275
v -0.973725 -0.973725 0.000000
v 0.990000 0.973725 0.016275
v 0.973725 0.973725 0.000000
v 0.973725 0.990000 0.016275
v -0.990000 0.973725 0.016275
v -0.973725 0.990000 0.016275
v -0.973725 0.973725 0.000000
v 0.890000 0.873725 0.016275
v 0.873725 0.890000 0.016275
v 0.906275 0.906275 0.000000
v 0.890000 -0.873725 0.016275
v 0.906275 -0.906275 0.000000
v 0.873725 -0.890000 0.016275
v -0.873725 -0.890000 0.016275
v -0.906275 -0.906275 0.000000
v -0.890000 -0.873725 0.016275
v -0.890000 0.873725 0.016275
v -0.906275 0.906275 0.000000
v -0.873725 0.890000 0.016275
v 0.890000 0.873725 0.033725
v 0.873725 0.873725 0.050000
v 0.873725 0.890000 0.033725
v 0.890000 -0.873725 0.033725
v 0.873725 -0.890000 0.033725
v 0.873725 -0.873725 0.050000
v -0.873725 -0.890000 0.033725
v -0.890000 -0.873725 0.033725
v -0.873725 -0.873725 0.050000
v -0.890000 0.873725 0.033725
v -0.873725 0.890000 0.033725
v -0.873725 0.873725 0.050000
v 0.990000 -0.973725 0.083725
v 0.973875 -0.973875 0.097796
v 0.973725 -0.990000 0.083725
v -0.973725 -0.990000 0.083725
v -0.973875 -0.973875 0.097796
v -0.990000 -0.973725 0.083725
v 0.990000 0.973725 0.083725
v 0.973725 0.990000 0.083725
v 0.973875 0.973875 0.097796
v -0.990000 0.973725 0.083725
v -0.973875 0.973875 0.097796
v -0.973725 0.990000 0.083725
v 0.933943 0.912610 0.099094
v 0.936276 0.936276 0.092657
v 0.912610 0.933943 0.099094
v 0.933943 -0.912610 0.099094
v 0.912610 -0.933943 0.099094
v 0.936276 -0.936276 0.092657
v -0.912610 -0.933943 0.099094
v -0.933943 -0.912610 0.099094
v -0.936276 -0.936276 0.092657
v -0.933943 0.912610 0.099094
v -0.912610 0.933943 0.099094
v -0.936276 0.936276 0.092657
v 0.933943 0.912610 0.099094
v 0.912610 0.933943 0.099094
v 0.931460 0.931460 0.107735
v 0.933943 -0.912610 0.099094
v 0.931460 -0.931460 0.107735
v 0.912610 -0.933943 0.099094
v -0.912610 -0.933943 0.099094
v -0.931460 -0.931460 0.107735
v -0.933943 -0.912610 0.099094
v -0.933943 0.912610 0.099094
v -0.931460 0.931460 0.107735
v -0.912610 0.933943 0.099094
vn -0.0000 1.0000 -0.0000
vn -0.0000 -1.0000 -0.0000
vn -0.0000 -0.0000 -1.0000
vn -1.0000 -0.0000 -0.0000
vn -0.1354 -0.0000 0.9908
vn 1.0000 -0.0000 -0.0000
vn -0.0000 0.2179 0.9760
vn -0.0000 0.1354 0.9908
vn 0.1354 -0.0000 0.9908
vn -0.0000 -0.1354 0.9908
vn -0.5334 -0.0000 0.8459
vn 0.5334 -0.0000 0.8459
vn -0.0000 -0.0000 1.0000
vn -0.0000 -0.2179 0.9760
vn 0.5773 -0.5774 -0.5774
vn -0.5773 -0.5774 -0.5774
vn 0.5773 0.5774 -0.5774
vn -0.5773 0.5774 -0.5774
vn -0.3015 -0.3015 -0.9045
vn -0.3015 0.3015 -0.9045
vn 0.3015 0.3015 -0.9045
vn 0.3015 -0.3015 -0.9045
vn -0.5774 -0.5774 -0.5774
vn -0.5774 0.5774 -0.5774
vn 0.5774 0.5774 -0.5774
vn 0.5774 -0.5774 -0.5774
vn 0.5514 -0.5514 0.6260
vn -0.5514 -0.5514 0.6260
vn 0.5514 0.5514 0.6260
vn -0.5514 0.5514 0.6260
vn 0.2337 0.2337 0.9438
vn 0.2337 -0.2337 0.9438
vn -0.2337 -0.2337 0.9438
vn -0.2337 0.2337 0.9438
vn 0.4230 0.4230 -0.8013
vn 0.4230 -0.4230 -0.8013
vn -0.4230 -0.4230 -0.8013
vn -0.4230 0.4230 -0.8013
vn -0.7071 -0.0000 -0.7071
vn -0.0000 0.7071 -0.7071
vn 0.7071 -0.0000 -0.7071
vn -0.0000 -0.7071 -0.7071
vn -0.7071 -0.7071 -0.0000
vn 0.7071 -0.7071 -0.0000
vn 0.7071 0.7071 -0.0000
vn -0.7071 0.7071 -0.0000
vn 0.9401 -0.0000 0.3408
vn -0.0000 -0.9401 0.3408
vn -0.9401 -0.0000 0.3408
vn -0.0000 0.9401 0.3408
vn 0.6575 -0.0000 0.7535
vn -0.0000 -0.6575 0.7535
vn -0.6575 -0.0000 0.7535
vn -0.0000 0.6575 0.7535
vn 0.9611 -0.0000 0.2762
vn -0.0000 -0.9611 0.2762
vn -0.9611 -0.0000 0.2762
vn -0.0000 0.9611 0.2762
vn -0.4495 -0.2733 0.8504
vn 0.4495 -0.2733 0.8504
vn 0.4495 0.2733 0.8504
vn -0.4495 0.2733 0.8504
vt 0.058725 0.050505
vt 0.941275 0.050505
vt 0.941275 0.050505
vt 0.991780 0.000000
vt 0.008220 0.000000
vt 0.042285 0.042285
vt 0.042285 0.957715
vt 0.008220 0.991780
vt 0.008220 0.008220
vt 0.008220 1.000000
vt 0.991780 1.000000
vt 0.991780 1.000000
vt 0.008220 1.000000
vt 0.050505 0.941275
vt 0.050505 0.058725
vt 0.038846 0.038846
vt 0.011660 0.011660
vt 0.011660 0.988340
vt 0.038846 0.961155
vt 0.949495 0.058725
vt 0.949495 0.941275
vt 0.949495 0.058725
vt 0.058725 0.058725
vt 0.941275 0.058725
vt 0.941275 0.941275
vt 0.058725 0.941275
vt 0.941275 0.949495
vt 0.058725 0.949495
vt 0.058725 0.949495
vt 0.941275 0.949495
vt 0.060701 0.050505
vt 0.060701 0.050505
vt 0.939299 0.050505
vt 0.939299 0.050505
vt 0.961155 0.038846
vt 0.988340 0.011660
vt 0.961155 0.961155
vt 0.988340 0.988340
vt 0.050505 0.939299
vt 0.050505 0.939299
vt 0.050505 0.060701
vt 0.050505 0.060701
vt 0.949495 0.060701
vt 0.949495 0.060701
vt 0.949495 0.939299
vt 0.949495 0.939299
vt 0.058224 0.058224
vt 0.058224 0.941776
vt 0.941776 0.941776
vt 0.941776 0.058224
vt 0.939299 0.949495
vt 0.939299 0.949495
vt 0.060701 0.949495
vt 0.060701 0.949495
vt 0.957715 0.042285
vt 0.042285 0.042285
vt 0.008220 0.008220
vt 0.991780 0.008220
vt 1.000000 0.991780
vt 1.000000 0.008220
vt 1.000000 0.008220
vt 0.957715 0.957715
vt 0.957715 0.042285
vt 0.991780 0.008220
vt 0.991780 0.991780
vt 0.042285 0.957715
vt 0.957715 0.957715
vt 0.991780 0.991780
vt 0.008220 0.991780
vt 0.000000 0.008220
vt 0.000000 0.991780
vt 0.000000 0.008220
vt 0.000000 0.991780
s 0
usemtl white_mat
f 18/1/1 19/2/1 31/3/1 29/1/1
f 4/4/2 2/5/2 39/5/2 40/4/2
f 17/6/3 15/7/3 8/8/3 3/9/3
f 9/10/1 11/11/1 48/12/1 44/13/1
f 13/14/4 16/15/4 28/15/4 25/14/4
f 54/16/5 38/17/5 45/18/5 50/19/5
f 21/20/6 22/21/6 34/21/6 32/22/6
f 30/23/3 33/24/3 36/25/3 26/26/3
f 24/27/2 14/28/2 27/29/2 35/30/2
f 53/31/7 66/32/7 67/33/7 55/34/7
f 57/35/8 41/36/8 38/17/8 54/16/8
f 60/37/9 47/38/9 41/36/9 57/35/9
f 50/19/10 45/18/10 47/38/10 60/37/10
f 49/39/11 61/40/11 64/41/11 52/42/11
f 56/43/12 69/44/12 70/45/12 58/46/12
f 65/47/13 63/48/13 71/49/13 68/50/13
f 59/51/14 72/52/14 62/53/14 51/54/14
f 20/55/3 17/56/3 3/57/3 6/58/3
f 10/59/4 5/60/4 42/61/4 46/59/4
f 23/62/3 20/63/3 6/64/3 12/65/3
f 15/66/3 23/67/3 12/68/3 8/69/3
f 1/70/15 2/5/15 3/9/15
f 4/4/16 5/60/16 6/58/16
f 7/71/17 8/69/17 9/10/17
f 10/59/18 11/11/18 12/65/18
f 13/14/19 14/28/19 15/7/19
f 16/15/20 17/56/20 18/1/20
f 19/2/21 20/63/21 21/20/21
f 22/21/22 23/67/22 24/27/22
f 25/14/23 26/26/23 27/29/23
f 28/15/24 29/1/24 30/23/24
f 31/3/25 32/22/25 33/24/25
f 34/21/26 35/30/26 36/25/26
f 37/72/27 38/17/27 39/5/27
f 40/4/28 41/36/28 42/61/28
f 43/73/29 44/13/29 45/18/29
f 46/59/30 47/38/30 48/12/30
f 49/39/31 50/19/31 51/54/31
f 52/42/32 53/31/32 54/16/32
f 55/34/33 56/43/33 57/35/33
f 58/46/34 59/51/34 60/37/34
f 61/40/35 62/53/35 63/48/35
f 64/41/36 65/47/36 66/32/36
f 67/33/37 68/50/37 69/44/37
f 70/45/38 71/49/38 72/52/38
f 15/7/39 17/6/39 16/15/39 13/14/39
f 17/56/40 20/55/40 19/2/40 18/1/40
f 20/63/41 23/62/41 22/21/41 21/20/41
f 23/67/42 15/66/42 14/28/42 24/27/42
f 7/71/41 1/70/41 3/9/41 8/8/41
f 2/5/42 4/4/42 6/58/42 3/57/42
f 5/60/39 10/59/39 12/65/39 6/64/39
f 11/11/40 9/10/40 8/69/40 12/68/40
f 25/14/39 28/15/39 30/23/39 26/26/39
f 29/1/40 31/3/40 33/24/40 30/23/40
f 32/22/41 34/21/41 36/25/41 33/24/41
f 35/30/42 27/29/42 26/26/42 36/25/42
f 13/14/43 25/14/43 27/29/43 14/28/43
f 34/21/44 22/21/44 24/27/44 35/30/44
f 21/20/45 32/22/45 31/3/45 19/2/45
f 28/15/46 16/15/46 18/1/46 29/1/46
f 49/39/47 52/42/47 54/16/47 50/19/47
f 53/31/48 55/34/48 57/35/48 54/16/48
f 56/43/49 58/46/49 60/37/49 57/35/49
f 59/51/50 51/54/50 50/19/50 60/37/50
f 45/18/51 38/17/51 37/72/51 43/73/51
f 38/17/52 41/36/52 40/4/52 39/5/52
f 41/36/53 47/38/53 46/59/53 42/61/53
f 47/38/54 45/18/54 44/13/54 48/12/54
f 63/48/55 65/47/55 64/41/55 61/40/55
f 65/47/56 68/50/56 67/33/56 66/32/56
f 68/50/57 71/49/57 70/45/57 69/44/57
f 71/49/58 63/48/58 62/53/58 72/52/58
f 51/54/59 62/53/59 61/40/59 49/39/59
f 72/52/60 59/51/60 58/46/60 70/45/60
f 55/34/61 67/33/61 69/44/61 56/43/61
f 66/32/62 53/31/62 52/42/62 64/41/62
f 1/70/44 37/72/44 39/5/44 2/5/44
f 4/4/43 40/4/43 42/61/43 5/60/43
f 9/10/45 44/13/45 43/73/45 7/71/45
f 10/59/46 46/59/46 48/12/46 11/11/46
f 1/70/6 7/71/6 43/73/6 37/72/6
