# Blender 3.4.1
# www.blender.org
mtllib D_key.mtl
o Cube.003
v 0.427331 -0.496863 0.000000
v 0.423587 -0.519095 -0.028977
v 0.453697 -0.487835 -0.029779
v 0.349062 -0.355381 -0.639634
v 0.345733 -0.317612 -0.668611
v 0.379368 -0.324552 -0.638832
v 0.427331 0.363535 0.000000
v 0.453697 0.363535 -0.029779
v 0.423447 0.393535 -0.030000
v 0.345733 0.363535 -0.668611
v 0.349172 0.393535 -0.638611
v 0.379368 0.363535 -0.638832
v -0.427331 -0.496863 0.000000
v -0.453697 -0.487835 -0.029779
v -0.423587 -0.519095 -0.028977
v -0.345733 -0.317612 -0.668611
v -0.349062 -0.355381 -0.639634
v -0.379368 -0.324552 -0.638832
v -0.423447 0.393535 -0.030000
v -0.453697 0.363535 -0.029779
v -0.427331 0.363535 0.000000
v -0.349172 0.393535 -0.638611
v -0.345733 0.363535 -0.668611
v -0.379368 0.363535 -0.638832
vn -0.0000 -0.9659 -0.2589
vn -0.9926 -0.0000 -0.1211
vn -0.0000 -0.0000 -1.0000
vn 0.9926 -0.0000 -0.1211
vn -0.0000 1.0000 -0.0000
vn 0.6658 -0.6311 0.3981
vn 0.5183 -0.4913 -0.6999
vn 0.5961 0.6050 0.5278
vn 0.5500 0.5582 -0.6212
vn -0.6658 -0.6311 0.3981
vn -0.5183 -0.4913 -0.6999
vn -0.5961 0.6050 0.5278
vn -0.5500 0.5582 -0.6212
vn 0.7487 -0.0000 0.6629
vn 0.6911 -0.6725 -0.2646
vn 0.6629 -0.0000 -0.7487
vn 0.7019 0.7071 -0.0857
vn -0.7019 0.7071 -0.0857
vn -0.7487 -0.0000 0.6629
vn -0.6629 -0.0000 -0.7487
vn -0.6911 -0.6725 -0.2646
vn -0.0000 0.7071 0.7071
vn -0.0000 -0.6087 -0.7934
vn -0.0000 0.7071 -0.7071
vn -0.0000 -0.7934 0.6087
vn -0.0000 -0.0000 1.0000
vt 0.133200 0.741851
vt 0.385835 0.991450
vt 0.134223 0.747890
vt 0.387103 0.000000
vt 0.134223 0.750000
vt 0.125993 0.739399
vt 0.125000 0.739399
vt 0.386135 0.008699
vt 0.615434 0.000000
vt 0.614165 0.990391
vt 0.865020 0.739881
vt 0.625000 0.010119
vt 0.625000 0.990020
vt 0.613865 0.009872
vt 0.133200 0.508149
vt 0.125993 0.508149
vt 0.125000 0.508149
vt 0.386135 0.241467
vt 0.386217 0.258557
vt 0.134261 0.500000
vt 0.865020 0.510119
vt 0.625000 0.239881
vt 0.625000 0.259980
vt 0.615142 0.250000
vt 0.613783 0.259605
vt 0.613865 0.240302
vt 0.366800 0.741851
vt 0.374007 0.739399
vt 0.386135 0.741301
vt 0.365777 0.747890
vt 0.385835 0.758549
vt 0.365777 0.750000
vt 0.634980 0.739881
vt 0.625000 0.759980
vt 0.614165 0.759610
vt 0.616729 0.750000
vt 0.613865 0.740128
vt 0.386217 0.491443
vt 0.365739 0.500000
vt 0.374007 0.508149
vt 0.386135 0.508533
vt 0.366800 0.508149
vt 0.613783 0.490395
vt 0.634980 0.510119
vt 0.625000 0.490020
vt 0.613865 0.500000
vt 0.613865 0.509698
s 0
usemtl white_mat.003
f 17/35/1 4/10/1 2/2/1 15/31/1
f 20/41/2 24/47/2 18/37/2 14/29/2
f 23/44/3 10/21/3 5/11/3 16/33/3
f 3/8/4 6/14/4 12/26/4 8/18/4
f 9/19/5 11/25/5 22/43/5 19/38/5
f 1/1/6 2/3/6 3/6/6
f 4/9/7 5/12/7 6/14/7
f 7/15/8 8/16/8 9/20/8
f 10/22/9 11/24/9 12/26/9
f 13/27/10 14/28/10 15/30/10
f 16/34/11 17/35/11 18/36/11
f 19/39/12 20/40/12 21/42/12
f 22/43/13 23/45/13 24/46/13
f 7/15/14 1/1/14 3/7/14 8/17/14
f 2/4/15 4/9/15 6/14/15 3/8/15
f 5/12/16 10/22/16 12/26/16 6/14/16
f 11/25/17 9/19/17 8/18/17 12/26/17
f 24/47/18 20/41/18 19/38/18 22/43/18
f 13/27/19 21/42/19 20/41/19 14/29/19
f 23/44/20 16/33/20 18/37/20 24/47/20
f 17/35/21 15/31/21 14/29/21 18/37/21
f 21/42/22 7/15/22 9/20/22 19/39/22
f 16/34/23 5/13/23 4/10/23 17/35/23
f 10/23/24 23/45/24 22/43/24 11/25/24
f 1/1/25 13/27/25 15/32/25 2/5/25
f 7/15/26 21/42/26 13/27/26 1/1/26
o Text.003
v 0.172061 -0.173330 -0.689432
v 0.018375 -0.173330 -0.689432
v -0.013048 -0.171385 -0.689432
v -0.042255 -0.165758 -0.689432
v -0.069147 -0.156764 -0.689432
v -0.093626 -0.144720 -0.689432
v -0.115593 -0.129939 -0.689432
v -0.134950 -0.112737 -0.689432
v -0.151598 -0.093428 -0.689432
v -0.165440 -0.072328 -0.689432
v -0.176377 -0.049751 -0.689432
v -0.184311 -0.026013 -0.689432
v -0.189144 -0.001428 -0.689432
v -0.190776 0.023688 -0.689432
v -0.189430 0.047106 -0.689432
v -0.185352 0.070581 -0.689432
v -0.178481 0.093716 -0.689432
v -0.168757 0.116110 -0.689432
v -0.156120 0.137364 -0.689432
v -0.140511 0.157080 -0.689432
v -0.121868 0.174859 -0.689432
v -0.100131 0.190299 -0.689432
v -0.075241 0.203004 -0.689432
v -0.047137 0.212573 -0.689432
v -0.015759 0.218607 -0.689432
v 0.018953 0.220707 -0.689432
v 0.172061 0.220707 -0.689432
v 0.115440 0.169864 -0.689432
v 0.028197 0.169864 -0.689432
v 0.001855 0.168499 -0.689432
v -0.022018 0.164533 -0.689432
v -0.043455 0.158155 -0.689432
v -0.062491 0.149556 -0.689432
v -0.079159 0.138927 -0.689432
v -0.093495 0.126459 -0.689432
v -0.105531 0.112341 -0.689432
v -0.115303 0.096765 -0.689432
v -0.122844 0.079921 -0.689432
v -0.128188 0.062000 -0.689432
v -0.131369 0.043192 -0.689432
v -0.132422 0.023688 -0.689432
v -0.131768 0.010617 -0.689432
v -0.129645 -0.003991 -0.689432
v -0.125814 -0.019626 -0.689432
v -0.120032 -0.035779 -0.689432
v -0.112060 -0.051940 -0.689432
v -0.101656 -0.067599 -0.689432
v -0.088580 -0.082247 -0.689432
v -0.072591 -0.095374 -0.689432
v -0.053448 -0.106472 -0.689432
v -0.030911 -0.115029 -0.689432
v -0.004739 -0.120537 -0.689432
v 0.025309 -0.122487 -0.689432
v 0.115440 -0.122487 -0.689432
v 0.172061 -0.173330 -0.631655
v 0.018375 -0.173330 -0.631655
v -0.013048 -0.171385 -0.631655
v -0.042255 -0.165758 -0.631655
v -0.069147 -0.156764 -0.631655
v -0.093626 -0.144720 -0.631655
v -0.115593 -0.129939 -0.631655
v -0.134950 -0.112737 -0.631655
v -0.151598 -0.093428 -0.631655
v -0.165440 -0.072328 -0.631655
v -0.176377 -0.049751 -0.631655
v -0.184311 -0.026013 -0.631655
v -0.189144 -0.001428 -0.631655
v -0.190776 0.023688 -0.631655
v -0.189430 0.047106 -0.631655
v -0.185352 0.070581 -0.631655
v -0.178481 0.093716 -0.631655
v -0.168757 0.116110 -0.631655
v -0.156120 0.137364 -0.631655
v -0.140511 0.157080 -0.631655
v -0.121868 0.174859 -0.631655
v -0.100131 0.190299 -0.631655
v -0.075241 0.203004 -0.631655
v -0.047137 0.212573 -0.631655
v -0.015759 0.218607 -0.631655
v 0.018953 0.220707 -0.631655
v 0.172061 0.220707 -0.631655
v 0.115440 0.169864 -0.631655
v 0.028197 0.169864 -0.631655
v 0.001855 0.168499 -0.631655
v -0.022018 0.164533 -0.631655
v -0.043455 0.158155 -0.631655
v -0.062491 0.149556 -0.631655
v -0.079159 0.138927 -0.631655
v -0.093495 0.126459 -0.631655
v -0.105531 0.112341 -0.631655
v -0.115303 0.096765 -0.631655
v -0.122844 0.079921 -0.631655
v -0.128188 0.062000 -0.631655
v -0.131369 0.043192 -0.631655
v -0.132422 0.023688 -0.631655
v -0.131768 0.010617 -0.631655
v -0.129645 -0.003991 -0.631655
v -0.125814 -0.019626 -0.631655
v -0.120032 -0.035779 -0.631655
v -0.112060 -0.051940 -0.631655
v -0.101656 -0.067599 -0.631655
v -0.088580 -0.082247 -0.631655
v -0.072591 -0.095374 -0.631655
v -0.053448 -0.106472 -0.631655
v -0.030911 -0.115029 -0.631655
v -0.004739 -0.120537 -0.631655
v 0.025309 -0.122487 -0.631655
v 0.115440 -0.122487 -0.631655
vn -0.0000 -0.0000 -1.0000
vn -0.0000 -0.0000 1.0000
vn 1.0000 -0.0000 -0.0000
vn -0.0000 1.0000 -0.0000
vn -0.0604 0.9982 -0.0000
vn -0.1888 0.9820 -0.0000
vn -0.3223 0.9466 -0.0000
vn -0.4546 0.8907 -0.0000
vn -0.5791 0.8152 -0.0000
vn -0.0000 -1.0000 -0.0000
vn 0.0517 -0.9987 -0.0000
vn -0.6901 0.7237 -0.0000
vn -1.0000 -0.0000 -0.0000
vn 0.1639 -0.9865 -0.0000
vn 0.2852 -0.9585 -0.0000
vn 0.4117 -0.9113 -0.0000
vn -0.7840 0.6207 -0.0000
vn 0.5376 -0.8432 -0.0000
vn 0.6563 -0.7545 -0.0000
vn -0.8596 0.5110 -0.0000
vn 0.7610 -0.6488 -0.0000
vn -0.9173 0.3983 -0.0000
vn 0.8471 -0.5314 -0.0000
vn 0.9127 -0.4086 -0.0000
vn -0.9586 0.2847 -0.0000
vn 0.9583 -0.2858 -0.0000
vn -0.9852 0.1712 -0.0000
vn 0.9860 -0.1668 -0.0000
vn -0.9984 0.0574 -0.0000
vn 0.9985 -0.0539 -0.0000
vn 0.9988 0.0500 -0.0000
vn -0.9979 -0.0649 -0.0000
vn 0.9896 0.1438 -0.0000
vn -0.9812 -0.1929 -0.0000
vn 0.9713 0.2380 -0.0000
vn 0.9415 0.3370 -0.0000
vn -0.9484 -0.3170 -0.0000
vn 0.8968 0.4424 -0.0000
vn -0.9000 -0.4360 -0.0000
vn 0.8329 0.5534 -0.0000
vn 0.7460 0.6659 -0.0000
vn -0.8361 -0.5485 -0.0000
vn 0.6346 0.7729 -0.0000
vn -0.7573 -0.6530 -0.0000
vn 0.5015 0.8651 -0.0000
vn 0.3550 0.9349 -0.0000
vn -0.6643 -0.7475 -0.0000
vn 0.2059 0.9786 -0.0000
vn 0.0647 0.9979 -0.0000
vn -0.5583 -0.8297 -0.0000
vn -0.4415 -0.8973 -0.0000
vn -0.3172 -0.9484 -0.0000
vn -0.1892 -0.9819 -0.0000
vn -0.0618 -0.9981 -0.0000
vt 0.000000 0.000000
vt 0.018868 0.000000
vt 0.037736 0.000000
vt 0.056604 0.000000
vt 0.075472 0.000000
vt 0.094340 0.000000
vt 0.113208 0.000000
vt 0.132075 0.000000
vt 0.150943 0.000000
vt 0.169811 0.000000
vt 0.188679 0.000000
vt 0.207547 0.000000
vt 0.226415 0.000000
vt 0.245283 0.000000
vt 0.264151 0.000000
vt 0.283019 0.000000
vt 0.301887 0.000000
vt 0.320755 0.000000
vt 0.339623 0.000000
vt 0.358491 0.000000
vt 0.377358 0.000000
vt 0.396226 0.000000
vt 0.415094 0.000000
vt 0.433962 0.000000
vt 0.452830 0.000000
vt 0.471698 0.000000
vt 0.490566 0.000000
vt 0.509434 0.000000
vt 0.528302 0.000000
vt 0.547170 0.000000
vt 0.566038 0.000000
vt 0.584906 0.000000
vt 0.603774 0.000000
vt 0.622642 0.000000
vt 0.641509 0.000000
vt 0.660377 0.000000
vt 0.679245 0.000000
vt 0.698113 0.000000
vt 0.716981 0.000000
vt 0.735849 0.000000
vt 0.754717 0.000000
vt 0.773585 0.000000
vt 0.792453 0.000000
vt 0.811321 0.000000
vt 0.830189 0.000000
vt 0.849057 0.000000
vt 0.867925 0.000000
vt 0.886792 0.000000
vt 0.905660 0.000000
vt 0.924528 0.000000
vt 0.943396 0.000000
vt 0.962264 0.000000
vt 0.981132 0.000000
vt 1.000000 0.000000
vt 0.000000 0.000000
vt 0.018868 0.000000
vt 0.037736 0.000000
vt 0.056604 0.000000
vt 0.075472 0.000000
vt 0.094340 0.000000
vt 0.113208 0.000000
vt 0.132075 0.000000
vt 0.150943 0.000000
vt 0.169811 0.000000
vt 0.188679 0.000000
vt 0.207547 0.000000
vt 0.226415 0.000000
vt 0.245283 0.000000
vt 0.264151 0.000000
vt 0.283019 0.000000
vt 0.301887 0.000000
vt 0.320755 0.000000
vt 0.339623 0.000000
vt 0.358491 0.000000
vt 0.377358 0.000000
vt 0.396226 0.000000
vt 0.415094 0.000000
vt 0.433962 0.000000
vt 0.452830 0.000000
vt 0.471698 0.000000
vt 0.490566 0.000000
vt 0.509434 0.000000
vt 0.528302 0.000000
vt 0.547170 0.000000
vt 0.566038 0.000000
vt 0.584906 0.000000
vt 0.603774 0.000000
vt 0.622642 0.000000
vt 0.641509 0.000000
vt 0.660377 0.000000
vt 0.679245 0.000000
vt 0.698113 0.000000
vt 0.716981 0.000000
vt 0.735849 0.000000
vt 0.754717 0.000000
vt 0.773585 0.000000
vt 0.792453 0.000000
vt 0.811321 0.000000
vt 0.830189 0.000000
vt 0.849057 0.000000
vt 0.867925 0.000000
vt 0.886792 0.000000
vt 0.905660 0.000000
vt 0.924528 0.000000
vt 0.943396 0.000000
vt 0.962264 0.000000
vt 0.981132 0.000000
vt 1.000000 0.000000
s 0
usemtl black_mat.003
f 25/48/27 52/75/27 51/74/27
f 52/75/27 50/73/27 51/74/27
f 52/75/27 49/72/27 50/73/27
f 52/75/27 48/71/27 49/72/27
f 52/75/27 47/70/27 48/71/27
f 52/75/27 46/69/27 47/70/27
f 52/75/27 45/68/27 46/69/27
f 52/75/27 53/76/27 45/68/27
f 53/76/27 54/77/27 45/68/27
f 54/77/27 44/67/27 45/68/27
f 25/48/27 78/101/27 52/75/27
f 55/78/27 44/67/27 54/77/27
f 56/79/27 44/67/27 55/78/27
f 57/80/27 44/67/27 56/79/27
f 57/80/27 43/66/27 44/67/27
f 58/81/27 43/66/27 57/80/27
f 59/82/27 43/66/27 58/81/27
f 59/82/27 42/65/27 43/66/27
f 60/83/27 42/65/27 59/82/27
f 60/83/27 41/64/27 42/65/27
f 61/84/27 41/64/27 60/83/27
f 62/85/27 41/64/27 61/84/27
f 62/85/27 40/63/27 41/64/27
f 63/86/27 40/63/27 62/85/27
f 63/86/27 39/62/27 40/63/27
f 64/87/27 39/62/27 63/86/27
f 64/87/27 38/61/27 39/62/27
f 65/88/27 38/61/27 64/87/27
f 66/89/27 38/61/27 65/88/27
f 66/89/27 37/60/27 38/61/27
f 67/90/27 37/60/27 66/89/27
f 67/90/27 36/59/27 37/60/27
f 68/91/27 36/59/27 67/90/27
f 69/92/27 36/59/27 68/91/27
f 69/92/27 35/58/27 36/59/27
f 70/93/27 35/58/27 69/92/27
f 70/93/27 34/57/27 35/58/27
f 71/94/27 34/57/27 70/93/27
f 72/95/27 34/57/27 71/94/27
f 72/95/27 33/56/27 34/57/27
f 73/96/27 33/56/27 72/95/27
f 73/96/27 32/55/27 33/56/27
f 74/97/27 32/55/27 73/96/27
f 75/98/27 32/55/27 74/97/27
f 75/98/27 31/54/27 32/55/27
f 76/99/27 31/54/27 75/98/27
f 77/100/27 31/54/27 76/99/27
f 25/48/27 77/100/27 78/101/27
f 25/48/27 31/54/27 77/100/27
f 25/48/27 30/53/27 31/54/27
f 25/48/27 29/52/27 30/53/27
f 25/48/27 28/51/27 29/52/27
f 25/48/27 27/50/27 28/51/27
f 25/48/27 26/49/27 27/50/27
f 79/102/28 105/128/28 106/129/28
f 106/129/28 105/128/28 104/127/28
f 106/129/28 104/127/28 103/126/28
f 106/129/28 103/126/28 102/125/28
f 106/129/28 102/125/28 101/124/28
f 106/129/28 101/124/28 100/123/28
f 106/129/28 100/123/28 99/122/28
f 106/129/28 99/122/28 107/130/28
f 107/130/28 99/122/28 108/131/28
f 108/131/28 99/122/28 98/121/28
f 79/102/28 106/129/28 132/155/28
f 109/132/28 108/131/28 98/121/28
f 110/133/28 109/132/28 98/121/28
f 111/134/28 110/133/28 98/121/28
f 111/134/28 98/121/28 97/120/28
f 112/135/28 111/134/28 97/120/28
f 113/136/28 112/135/28 97/120/28
f 113/136/28 97/120/28 96/119/28
f 114/137/28 113/136/28 96/119/28
f 114/137/28 96/119/28 95/118/28
f 115/138/28 114/137/28 95/118/28
f 116/139/28 115/138/28 95/118/28
f 116/139/28 95/118/28 94/117/28
f 117/140/28 116/139/28 94/117/28
f 117/140/28 94/117/28 93/116/28
f 118/141/28 117/140/28 93/116/28
f 118/141/28 93/116/28 92/115/28
f 119/142/28 118/141/28 92/115/28
f 120/143/28 119/142/28 92/115/28
f 120/143/28 92/115/28 91/114/28
f 121/144/28 120/143/28 91/114/28
f 121/144/28 91/114/28 90/113/28
f 122/145/28 121/144/28 90/113/28
f 123/146/28 122/145/28 90/113/28
f 123/146/28 90/113/28 89/112/28
f 124/147/28 123/146/28 89/112/28
f 124/147/28 89/112/28 88/111/28
f 125/148/28 124/147/28 88/111/28
f 126/149/28 125/148/28 88/111/28
f 126/149/28 88/111/28 87/110/28
f 127/150/28 126/149/28 87/110/28
f 127/150/28 87/110/28 86/109/28
f 128/151/28 127/150/28 86/109/28
f 129/152/28 128/151/28 86/109/28
f 129/152/28 86/109/28 85/108/28
f 130/153/28 129/152/28 85/108/28
f 131/154/28 130/153/28 85/108/28
f 79/102/28 132/155/28 131/154/28
f 79/102/28 131/154/28 85/108/28
f 79/102/28 85/108/28 84/107/28
f 79/102/28 84/107/28 83/106/28
f 79/102/28 83/106/28 82/105/28
f 79/102/28 82/105/28 81/104/28
f 79/102/28 81/104/28 80/103/28
f 25/48/29 51/74/29 105/128/29 79/102/29
f 51/74/30 50/73/30 104/127/30 105/128/30
f 50/73/31 49/72/31 103/126/31 104/127/31
f 49/72/32 48/71/32 102/125/32 103/126/32
f 48/71/33 47/70/33 101/124/33 102/125/33
f 47/70/34 46/69/34 100/123/34 101/124/34
f 46/69/35 45/68/35 99/122/35 100/123/35
f 53/76/36 52/75/36 106/129/36 107/130/36
f 54/77/37 53/76/37 107/130/37 108/131/37
f 45/68/38 44/67/38 98/121/38 99/122/38
f 52/75/39 78/101/39 132/155/39 106/129/39
f 55/78/40 54/77/40 108/131/40 109/132/40
f 56/79/41 55/78/41 109/132/41 110/133/41
f 57/80/42 56/79/42 110/133/42 111/134/42
f 44/67/43 43/66/43 97/120/43 98/121/43
f 58/81/44 57/80/44 111/134/44 112/135/44
f 59/82/45 58/81/45 112/135/45 113/136/45
f 43/66/46 42/65/46 96/119/46 97/120/46
f 60/83/47 59/82/47 113/136/47 114/137/47
f 42/65/48 41/64/48 95/118/48 96/119/48
f 61/84/49 60/83/49 114/137/49 115/138/49
f 62/85/50 61/84/50 115/138/50 116/139/50
f 41/64/51 40/63/51 94/117/51 95/118/51
f 63/86/52 62/85/52 116/139/52 117/140/52
f 40/63/53 39/62/53 93/116/53 94/117/53
f 64/87/54 63/86/54 117/140/54 118/141/54
f 39/62/55 38/61/55 92/115/55 93/116/55
f 65/88/56 64/87/56 118/141/56 119/142/56
f 66/89/57 65/88/57 119/142/57 120/143/57
f 38/61/58 37/60/58 91/114/58 92/115/58
f 67/90/59 66/89/59 120/143/59 121/144/59
f 37/60/60 36/59/60 90/113/60 91/114/60
f 68/91/61 67/90/61 121/144/61 122/145/61
f 69/92/62 68/91/62 122/145/62 123/146/62
f 36/59/63 35/58/63 89/112/63 90/113/63
f 70/93/64 69/92/64 123/146/64 124/147/64
f 35/58/65 34/57/65 88/111/65 89/112/65
f 71/94/66 70/93/66 124/147/66 125/148/66
f 72/95/67 71/94/67 125/148/67 126/149/67
f 34/57/68 33/56/68 87/110/68 88/111/68
f 73/96/69 72/95/69 126/149/69 127/150/69
f 33/56/70 32/55/70 86/109/70 87/110/70
f 74/97/71 73/96/71 127/150/71 128/151/71
f 75/98/72 74/97/72 128/151/72 129/152/72
f 32/55/73 31/54/73 85/108/73 86/109/73
f 76/99/74 75/98/74 129/152/74 130/153/74
f 77/100/75 76/99/75 130/153/75 131/154/75
f 78/101/30 77/100/30 131/154/30 132/155/30
f 31/54/76 30/53/76 84/107/76 85/108/76
f 30/53/77 29/52/77 83/106/77 84/107/77
f 29/52/78 28/51/78 82/105/78 83/106/78
f 28/51/79 27/50/79 81/104/79 82/105/79
f 26/49/36 25/48/36 79/102/36 80/103/36
f 27/50/80 26/49/80 80/103/80 81/104/80
