# Blender 4.0.1
# www.blender.org
mtllib panel_A4.mtl
o Text
v -1.560585 0.100000 1.227690
v -1.560585 0.100000 1.227690
v -1.560585 0.100000 1.227690
v -1.428450 0.100000 1.227690
v -1.428450 0.100000 1.227690
v -1.428450 0.100000 1.227690
v -0.343060 0.100000 -0.099946
v -0.343060 0.100000 -0.099946
v -0.343060 0.100000 -0.099946
v -0.343060 0.100000 -0.241519
v -0.343060 0.100000 -0.241519
v -0.343060 0.100000 -0.241519
v -0.343060 0.100000 -0.241519
v -1.252271 0.100000 -0.241519
v -1.252271 0.100000 -0.241519
v -1.252271 0.100000 -0.241519
v -1.252271 0.100000 -0.241519
v -1.252271 0.100000 -0.241519
v -1.252271 0.100000 -0.946236
v -1.252271 0.100000 -0.946236
v -1.252271 0.100000 -0.946236
v -1.560585 0.100000 -0.946236
v -1.560585 0.100000 -0.946236
v -1.560585 0.100000 -0.946236
v -1.560585 0.100000 -0.241519
v -1.560585 0.100000 -0.241519
v -1.560585 0.100000 -0.241519
v -1.560585 0.100000 -0.241519
v -1.790247 0.100000 -0.241519
v -1.790247 0.100000 -0.241519
v -1.790247 0.100000 -0.241519
v -1.790247 0.100000 -0.241519
v -1.790247 0.100000 -0.241519
v -1.790247 0.100000 0.035334
v -1.790247 0.100000 0.035334
v -1.790247 0.100000 0.035334
v -1.560585 0.100000 0.035334
v -1.560585 0.100000 0.035334
v -1.560585 0.100000 0.035334
v -1.245979 0.100000 0.645669
v -1.245979 0.100000 0.645669
v -1.245979 0.100000 0.645669
v -1.252271 0.100000 0.645669
v -1.252271 0.100000 0.645669
v -1.252271 0.100000 0.645669
v -1.252271 0.100000 0.035334
v -1.252271 0.100000 0.035334
v -1.252271 0.100000 0.035334
v -0.755194 0.100000 0.035334
v -0.755194 0.100000 0.035334
v -0.755194 0.100000 0.035334
v 0.651094 0.100000 1.211960
v 0.651094 0.100000 1.211960
v 0.651094 0.100000 1.211960
v 0.868172 0.100000 1.211960
v 0.868172 0.100000 1.211960
v 0.868172 0.100000 1.211960
v 1.789968 0.100000 -0.946236
v 1.789968 0.100000 -0.946236
v 1.789968 0.100000 -0.946236
v 1.475362 0.100000 -0.946236
v 1.475362 0.100000 -0.946236
v 1.475362 0.100000 -0.946236
v 1.204801 0.100000 -0.313878
v 1.204801 0.100000 -0.313878
v 1.204801 0.100000 -0.313878
v 0.292444 0.100000 -0.313878
v 0.292444 0.100000 -0.313878
v 0.292444 0.100000 -0.313878
v 0.006152 0.100000 -0.946236
v 0.006152 0.100000 -0.946236
v 0.006152 0.100000 -0.946236
v -0.308453 0.100000 -0.946236
v -0.308453 0.100000 -0.946236
v -0.308453 0.100000 -0.946236
v 0.764353 0.100000 0.740051
v 0.764353 0.100000 0.740051
v 0.764353 0.100000 0.740051
v 0.418286 0.100000 -0.037025
v 0.418286 0.100000 -0.037025
v 0.418286 0.100000 -0.037025
v 1.085250 0.100000 -0.037025
v 1.085250 0.100000 -0.037025
v 1.085250 0.100000 -0.037025
v -1.560585 0.000000 1.227690
v -1.560585 0.000000 1.227690
v -1.560585 0.000000 1.227690
v -1.428450 0.000000 1.227690
v -1.428450 0.000000 1.227690
v -1.428450 0.000000 1.227690
v -0.343060 0.000000 -0.099946
v -0.343060 0.000000 -0.099946
v -0.343060 0.000000 -0.099946
v -0.343060 0.000000 -0.241519
v -0.343060 0.000000 -0.241519
v -0.343060 0.000000 -0.241519
v -0.343060 0.000000 -0.241519
v -1.252271 0.000000 -0.241519
v -1.252271 0.000000 -0.241519
v -1.252271 0.000000 -0.241519
v -1.252271 0.000000 -0.241519
v -1.252271 0.000000 -0.241519
v -1.252271 0.000000 -0.946236
v -1.252271 0.000000 -0.946236
v -1.252271 0.000000 -0.946236
v -1.560585 0.000000 -0.946236
v -1.560585 0.000000 -0.946236
v -1.560585 0.000000 -0.946236
v -1.560585 0.000000 -0.241519
v -1.560585 0.000000 -0.241519
v -1.560585 0.000000 -0.241519
v -1.560585 0.000000 -0.241519
v -1.790247 0.000000 -0.241519
v -1.790247 0.000000 -0.241519
v -1.790247 0.000000 -0.241519
v -1.790247 0.000000 -0.241519
v -1.790247 0.000000 -0.241519
v -1.790247 0.000000 0.035334
v -1.790247 0.000000 0.035334
v -1.790247 0.000000 0.035334
v -1.560585 0.000000 0.035334
v -1.560585 0.000000 0.035334
v -1.560585 0.000000 0.035334
v -1.245979 0.000000 0.645669
v -1.245979 0.000000 0.645669
v -1.245979 0.000000 0.645669
v -1.252271 0.000000 0.645669
v -1.252271 0.000000 0.645669
v -1.252271 0.000000 0.645669
v -1.252271 0.000000 0.035334
v -1.252271 0.000000 0.035334
v -1.252271 0.000000 0.035334
v -0.755194 0.000000 0.035334
v -0.755194 0.000000 0.035334
v -0.755194 0.000000 0.035334
v 0.651094 0.000000 1.211960
v 0.651094 0.000000 1.211960
v 0.651094 0.000000 1.211960
v 0.868172 0.000000 1.211960
v 0.868172 0.000000 1.211960
v 0.868172 0.000000 1.211960
v 1.789968 0.000000 -0.946236
v 1.789968 0.000000 -0.946236
v 1.789968 0.000000 -0.946236
v 1.475362 0.000000 -0.946236
v 1.475362 0.000000 -0.946236
v 1.475362 0.000000 -0.946236
v 1.204801 0.000000 -0.313878
v 1.204801 0.000000 -0.313878
v 1.204801 0.000000 -0.313878
v 0.292444 0.000000 -0.313878
v 0.292444 0.000000 -0.313878
v 0.292444 0.000000 -0.313878
v 0.006152 0.000000 -0.946236
v 0.006152 0.000000 -0.946236
v 0.006152 0.000000 -0.946236
v -0.308453 0.000000 -0.946236
v -0.308453 0.000000 -0.946236
v -0.308453 0.000000 -0.946236
v 0.764353 0.000000 0.740051
v 0.764353 0.000000 0.740051
v 0.764353 0.000000 0.740051
v 0.418286 0.000000 -0.037025
v 0.418286 0.000000 -0.037025
v 0.418286 0.000000 -0.037025
v 1.085250 0.000000 -0.037025
v 1.085250 0.000000 -0.037025
v 1.085250 0.000000 -0.037025
vn -1.0000 -0.0000 -0.0000
vn -0.0000 1.0000 -0.0000
vn 0.7742 -0.0000 0.6329
vn -0.0000 -0.0000 -1.0000
vn 1.0000 -0.0000 -0.0000
vn -0.9138 -0.0000 0.4063
vn 0.9196 -0.0000 0.3928
vn -0.9194 -0.0000 -0.3934
vn 0.9135 -0.0000 -0.4068
vn 0.9110 -0.0000 -0.4124
vn -0.0000 -1.0000 -0.0000
vn -0.7793 -0.0000 -0.6267
vn -0.9243 -0.0000 -0.3817
vn -0.0000 -0.0000 1.0000
vn 0.6342 0.4372 0.6377
vn 0.7052 -0.0000 -0.7090
vn -0.2874 -0.0000 0.9578
vn -0.1234 -0.0000 0.9924
vn 0.1234 -0.0000 0.9924
vn -0.1672 0.4099 0.8967
vn -0.0000 0.9646 -0.2638
vn 0.1833 -0.0000 -0.9831
vn 0.6949 -0.2989 0.6540
vn 0.7071 -0.0000 -0.7071
vn -0.4799 -0.8773 -0.0000
vn -0.0000 -0.9099 -0.4147
vn 0.7362 0.6767 -0.0000
vn -0.0000 0.6774 -0.7356
vn 0.7794 0.5178 -0.3528
vn -0.8609 0.3352 0.3828
vn -0.0000 0.4671 0.8842
vn -0.8268 -0.4470 -0.3414
vn -0.0000 0.6868 0.7269
vn -0.0000 0.6749 0.7379
vn 0.7841 -0.0000 0.6206
vn 0.6619 -0.7496 -0.0000
vn 0.9274 -0.0000 0.3741
vn -0.0000 -0.6754 -0.7374
vn 0.4596 -0.8402 -0.2878
vn -0.8737 -0.3195 0.3668
vn 0.8927 -0.0000 -0.4506
vn -0.8131 -0.0000 -0.5821
vn -0.0000 -0.4651 0.8853
vn -0.7929 0.4832 -0.3711
vn -0.0000 -0.6848 0.7287
vn -0.8605 -0.0000 -0.5094
vn -0.0000 -0.6729 0.7397
vn 0.8321 -0.0000 0.5547
vn 0.6247 -0.0000 -0.7809
vt 0.000000 0.000000
vt 0.714286 0.000000
vt 0.785714 0.000000
vt 0.857143 0.000000
vt 0.142857 0.000000
vt 0.071429 0.000000
vt 0.928571 0.000000
vt 0.285714 0.000000
vt 0.214286 0.000000
vt 0.142857 0.000000
vt 1.000000 0.000000
vt 0.142857 0.000000
vt 1.000000 0.000000
vt 0.642857 0.000000
vt 0.571429 0.000000
vt 0.357143 0.000000
vt 0.500000 0.000000
vt 0.428571 0.000000
vt 0.700000 0.000000
vt 0.700000 0.000000
vt 0.800000 0.000000
vt 0.200000 0.000000
vt 0.100000 0.000000
vt 0.400000 0.000000
vt 0.300000 0.000000
vt 0.900000 0.000000
vt 1.000000 0.000000
vt 0.600000 0.000000
vt 0.142857 0.000000
vt 0.214286 0.000000
vt 0.142857 0.000000
s 0
usemtl white_mat
f 3/1/1 37/2/1 121/2/1 86/1/1
f 41/3/2 45/4/2 2/1/2
f 45/4/2 38/2/2 2/1/2
f 7/5/3 5/6/3 90/6/3 91/5/3
f 9/5/2 38/2/2 48/7/2
f 43/4/4 40/3/4 124/3/4 127/4/4
f 14/8/4 11/9/4 97/9/4 98/8/4
f 9/10/2 48/7/2 50/11/2
f 9/12/2 50/13/2 41/3/2
f 9/12/2 36/14/2 38/2/2
f 9/5/2 33/15/2 36/14/2
f 19/16/5 15/8/5 102/8/5 103/16/5
f 25/17/2 30/15/2 17/8/2
f 22/18/4 20/16/4 105/16/4 106/18/4
f 27/17/1 23/18/1 108/18/1 111/17/1
f 54/1/6 73/19/6 157/20/6 137/1/6
f 77/21/2 74/19/2 53/1/2
f 58/22/7 56/23/7 141/23/7 142/22/7
f 66/24/8 62/25/8 147/25/8 149/24/8
f 79/26/9 76/21/9 160/21/9 163/26/9
f 60/22/2 83/27/2 77/21/2
f 72/28/2 74/19/2 69/17/2
f 65/24/2 81/26/2 83/11/2
f 75/20/4 71/28/4 156/28/4 158/19/4
f 61/25/4 59/22/4 144/22/4 145/25/4
f 70/28/10 68/17/10 153/17/10 154/28/10
f 92/12/11 87/1/11 126/3/11
f 126/3/11 87/1/11 128/4/11
f 128/4/11 87/1/11 123/2/11
f 95/9/11 92/29/11 114/15/11
f 92/12/11 131/7/11 123/2/11
f 143/22/11 140/23/11 138/1/11
f 92/5/11 123/2/11 119/14/11
f 99/8/2 96/9/2 113/15/2
f 92/10/11 126/3/11 135/11/11
f 92/5/11 135/13/11 131/7/11
f 92/5/11 119/14/11 114/15/11
f 104/16/11 101/8/11 112/17/11
f 109/17/2 100/8/2 117/15/2
f 104/16/11 112/17/11 107/18/11
f 131/7/11 128/4/11 123/2/11
f 143/22/11 138/1/11 162/21/11
f 162/21/11 138/1/11 159/19/11
f 143/22/11 150/24/11 146/25/11
f 143/22/11 168/27/11 150/24/11
f 150/24/11 164/26/11 152/17/11
f 155/28/11 152/17/11 159/19/11
f 150/24/11 168/11/11 164/26/11
f 164/26/11 162/21/11 159/19/11
f 143/22/11 162/21/11 168/11/11
f 152/17/11 164/26/11 159/19/11
f 9/5/2 2/1/2 6/6/2
f 10/9/5 8/29/5 93/5/5 94/9/5
f 13/30/2 33/15/2 9/5/2
f 18/8/2 29/15/2 12/9/2
f 21/16/2 26/17/2 16/8/2
f 21/16/2 24/18/2 26/17/2
f 9/31/2 41/3/2 2/1/2
f 42/3/12 49/11/12 133/11/12 125/3/12
f 60/22/2 53/1/2 57/23/2
f 60/22/2 63/25/2 65/24/2
f 65/24/2 69/17/2 81/26/2
f 69/17/2 74/19/2 81/26/2
f 60/22/2 77/21/2 53/1/2
f 78/21/13 82/11/13 166/11/13 161/21/13
f 46/7/5 44/4/5 129/4/5 130/7/5
f 51/11/14 47/7/14 132/7/14 134/11/14
f 55/23/14 52/1/14 136/1/14 139/23/14
f 84/11/14 80/26/14 165/26/14 167/11/14
f 92/31/11 89/6/11 87/1/11
f 31/15/4 28/17/4 110/17/4 116/15/4
f 34/14/1 32/15/1 115/15/1 118/14/1
f 60/22/2 65/24/2 83/11/2
f 39/2/14 35/14/14 120/14/14 122/2/14
f 67/17/4 64/24/4 148/24/4 151/17/4
f 81/26/2 74/19/2 77/21/2
f 48/7/2 38/2/2 45/4/2
f 1/1/14 2/1/14 3/1/14
f 4/6/14 5/6/14 6/6/14
f 7/5/15 8/29/15 9/5/15
f 10/9/16 11/9/16 12/9/16 13/30/16
f 14/8/5 15/8/5 16/8/5 17/8/5 18/8/5
f 19/16/2 20/16/2 21/16/2
f 22/18/2 23/18/2 24/18/2
f 25/17/17 26/17/17 27/17/17 28/17/17
f 29/15/1 30/15/1 31/15/1 32/15/1 33/15/1
f 34/14/1 35/14/1 36/14/1
f 37/2/18 38/2/18 39/2/18
f 40/3/2 41/3/2 42/3/2
f 43/4/2 44/4/2 45/4/2
f 46/7/19 47/7/19 48/7/19
f 49/11/20 50/11/20 51/11/20
f 52/1/4 53/1/4 54/1/4
f 55/23/2 56/23/2 57/23/2
f 58/22/2 59/22/2 60/22/2
f 61/25/2 62/25/2 63/25/2
f 64/24/18 65/24/18 66/24/18
f 67/17/5 68/17/5 69/17/5
f 70/28/21 71/28/21 72/28/21
f 73/19/4 74/19/4 75/20/4
f 76/21/2 77/21/2 78/21/2
f 79/26/22 80/26/22 81/26/22
f 82/11/1 83/11/1 84/11/1
f 85/1/2 86/1/2 87/1/2
f 88/6/2 89/6/2 90/6/2
f 91/5/23 92/29/23 93/5/23
f 94/9/24 95/9/24 96/9/24 97/9/24
f 98/8/5 99/8/5 100/8/5 101/8/5 102/8/5
f 103/16/2 104/16/2 105/16/2
f 106/18/2 107/18/2 108/18/2
f 109/17/1 110/17/1 111/17/1 112/17/1
f 113/15/1 114/15/1 115/15/1 116/15/1 117/15/1
f 118/14/1 119/14/1 120/14/1
f 121/2/1 122/2/1 123/2/1
f 124/3/2 125/3/2 126/3/2
f 127/4/2 128/4/2 129/4/2
f 130/7/5 131/7/5 132/7/5
f 133/11/25 134/11/25 135/11/25
f 136/1/2 137/1/2 138/1/2
f 139/23/2 140/23/2 141/23/2
f 142/22/2 143/22/2 144/22/2
f 145/25/2 146/25/2 147/25/2
f 148/24/1 149/24/1 150/24/1
f 151/17/5 152/17/5 153/17/5
f 154/28/26 155/28/26 156/28/26
f 157/20/4 158/19/4 159/19/4
f 160/21/2 161/21/2 162/21/2
f 163/26/5 164/26/5 165/26/5
f 166/11/1 167/11/1 168/11/1
f 1/1/14 4/6/14 6/6/14 2/1/14
f 5/6/3 7/5/3 9/5/3 6/6/3
f 8/29/27 10/9/27 13/30/27 9/5/27
f 11/9/4 14/8/4 18/8/4 12/9/4
f 15/8/5 19/16/5 21/16/5 16/8/5
f 20/16/4 22/18/4 24/18/4 21/16/4
f 2/1/1 38/2/1 37/2/1 3/1/1
f 40/3/4 43/4/4 45/4/4 41/3/4
f 52/1/14 55/23/14 57/23/14 53/1/14
f 56/23/7 58/22/7 60/22/7 57/23/7
f 64/24/28 67/17/28 69/17/28 65/24/28
f 68/17/29 70/28/29 72/28/29 69/17/29
f 53/1/30 74/19/30 73/19/30 54/1/30
f 76/21/9 79/26/9 81/26/9 77/21/9
f 41/3/12 50/13/12 49/11/12 42/3/12
f 44/4/5 46/7/5 48/7/5 45/4/5
f 47/7/31 51/11/31 50/11/31 48/7/31
f 77/21/32 83/27/32 82/11/32 78/21/32
f 80/26/33 84/11/33 83/11/33 81/26/33
f 12/9/2 29/15/2 33/15/2 13/30/2
f 16/8/2 26/17/2 25/17/2 17/8/2
f 17/8/2 30/15/2 29/15/2 18/8/2
f 23/18/1 27/17/1 26/17/1 24/18/1
f 28/17/4 31/15/4 30/15/4 25/17/4
f 59/22/4 61/25/4 63/25/4 60/22/4
f 32/15/1 34/14/1 36/14/1 33/15/1
f 62/25/8 66/24/8 65/24/8 63/25/8
f 71/28/4 75/20/4 74/19/4 72/28/4
f 35/14/34 39/2/34 38/2/34 36/14/34
f 87/1/14 89/6/14 88/6/14 85/1/14
f 89/6/35 92/31/35 91/5/35 90/6/35
f 92/29/36 95/9/36 94/9/36 93/5/36
f 96/9/4 99/8/4 98/8/4 97/9/4
f 101/8/5 104/16/5 103/16/5 102/8/5
f 104/16/4 107/18/4 106/18/4 105/16/4
f 86/1/1 121/2/1 123/2/1 87/1/1
f 126/3/4 128/4/4 127/4/4 124/3/4
f 138/1/14 140/23/14 139/23/14 136/1/14
f 140/23/37 143/22/37 142/22/37 141/23/37
f 150/24/38 152/17/38 151/17/38 148/24/38
f 152/17/39 155/28/39 154/28/39 153/17/39
f 137/1/40 157/20/40 159/19/40 138/1/40
f 162/21/41 164/26/41 163/26/41 160/21/41
f 125/3/42 133/11/42 135/11/42 126/3/42
f 128/4/5 131/7/5 130/7/5 129/4/5
f 131/7/43 135/13/43 134/11/43 132/7/43
f 161/21/44 166/11/44 168/11/44 162/21/44
f 164/26/45 168/11/45 167/11/45 165/26/45
f 95/9/11 114/15/11 113/15/11 96/9/11
f 100/8/11 109/17/11 112/17/11 101/8/11
f 99/8/2 113/15/2 117/15/2 100/8/2
f 107/18/1 112/17/1 111/17/1 108/18/1
f 109/17/4 117/15/4 116/15/4 110/17/4
f 143/22/4 146/25/4 145/25/4 144/22/4
f 114/15/1 119/14/1 118/14/1 115/15/1
f 146/25/46 150/24/46 149/24/46 147/25/46
f 155/28/4 159/19/4 158/19/4 156/28/4
f 119/14/47 123/2/47 122/2/47 120/14/47
f 3/1/2 86/1/2 85/1/2 1/1/2
f 4/6/2 88/6/2 90/6/2 5/6/2
f 7/5/48 91/5/48 93/5/48 8/29/48
f 10/9/49 94/9/49 97/9/49 11/9/49
f 14/8/5 98/8/5 102/8/5 15/8/5
f 19/16/2 103/16/2 105/16/2 20/16/2
f 22/18/2 106/18/2 108/18/2 23/18/2
f 27/17/1 111/17/1 110/17/1 28/17/1
f 31/15/1 116/15/1 115/15/1 32/15/1
f 34/14/1 118/14/1 120/14/1 35/14/1
f 39/2/1 122/2/1 121/2/1 37/2/1
f 42/3/2 125/3/2 124/3/2 40/3/2
f 43/4/2 127/4/2 129/4/2 44/4/2
f 46/7/5 130/7/5 132/7/5 47/7/5
f 51/11/1 134/11/1 133/11/1 49/11/1
f 54/1/2 137/1/2 136/1/2 52/1/2
f 55/23/2 139/23/2 141/23/2 56/23/2
f 58/22/2 142/22/2 144/22/2 59/22/2
f 61/25/2 145/25/2 147/25/2 62/25/2
f 66/24/1 149/24/1 148/24/1 64/24/1
f 67/17/49 151/17/49 153/17/49 68/17/49
f 70/28/4 154/28/4 156/28/4 71/28/4
f 75/20/4 158/19/4 157/20/4 73/19/4
f 78/21/2 161/21/2 160/21/2 76/21/2
f 79/26/5 163/26/5 165/26/5 80/26/5
f 84/11/1 167/11/1 166/11/1 82/11/1
f 4/6/14 1/1/14 85/1/14 88/6/14
o Plane
v 2.000000 -0.020000 -1.980000
v 1.980000 -0.020000 -2.000000
v 1.980000 0.000000 -1.980000
v -1.980000 -0.020000 -2.000000
v -2.000000 -0.020000 -1.980000
v -1.980000 0.000000 -1.980000
v 2.000000 -0.020000 1.980000
v 1.980000 0.000000 1.980000
v 1.980000 -0.020000 2.000000
v -2.000000 -0.020000 1.980000
v -1.980000 -0.020000 2.000000
v -1.980000 0.000000 1.980000
v 2.000000 -0.080000 -1.980000
v 1.980000 -0.100000 -1.980000
v 1.980000 -0.080000 -2.000000
v -1.980000 -0.080000 -2.000000
v -1.980000 -0.100000 -1.980000
v -2.000000 -0.080000 -1.980000
v 2.000000 -0.080000 1.980000
v 1.980000 -0.080000 2.000000
v 1.980000 -0.100000 1.980000
v -2.000000 -0.080000 1.980000
v -1.980000 -0.100000 1.980000
v -1.980000 -0.080000 2.000000
vn -0.0000 -0.0000 -1.0000
vn -0.0000 1.0000 -0.0000
vn -1.0000 -0.0000 -0.0000
vn -0.0000 -0.0000 1.0000
vn -0.0000 -1.0000 -0.0000
vn 0.5774 0.5774 -0.5774
vn -0.5774 0.5774 -0.5774
vn 0.5774 0.5774 0.5774
vn -0.5774 0.5774 0.5774
vn 0.5774 -0.5774 -0.5774
vn -0.5774 -0.5774 -0.5774
vn 0.5774 -0.5774 0.5773
vn -0.5774 -0.5774 0.5773
vn 0.7071 0.7071 -0.0000
vn -0.0000 0.7071 -0.7071
vn -0.7071 0.7071 -0.0000
vn -0.0000 0.7071 0.7071
vn 0.7071 -0.7071 -0.0000
vn -0.0000 -0.7071 -0.7071
vn -0.7071 -0.7071 -0.0000
vn -0.0000 -0.7071 0.7071
vn 0.7071 -0.0000 -0.7071
vn -0.7071 -0.0000 -0.7071
vn 0.7071 -0.0000 0.7071
vn -0.7071 -0.0000 0.7071
vn 1.0000 -0.0000 -0.0000
vt 0.995000 0.000000
vt 0.005000 0.000000
vt 0.995000 0.000000
vt 0.005000 0.005000
vt 0.995000 0.005000
vt 0.995000 0.995000
vt 0.005000 0.995000
vt 1.000000 0.995000
vt 1.000000 0.005000
vt 1.000000 0.005000
vt 1.000000 0.995000
vt 0.005000 1.000000
vt 0.995000 1.000000
vt 0.995000 1.000000
vt 0.005000 1.000000
vt 0.000000 0.005000
vt 0.000000 0.995000
vt 0.000000 0.995000
s 0
usemtl blackPanel
f 172/32/50 170/33/50 183/33/50 184/34/50
f 171/35/51 174/36/51 180/37/51 176/38/51
f 178/39/52 173/40/52 186/41/52 190/42/52
f 177/43/53 179/44/53 192/45/53 188/46/53
f 182/35/54 189/38/54 191/37/54 185/36/54
f 169/47/55 170/33/55 171/35/55
f 172/32/56 173/40/56 174/36/56
f 175/48/57 176/38/57 177/43/57
f 178/39/58 179/44/58 180/37/58
f 181/47/59 182/35/59 183/33/59
f 184/34/60 185/36/60 186/41/60
f 187/49/61 188/46/61 189/38/61
f 190/42/62 191/37/62 192/45/62
f 175/48/63 169/47/63 171/35/63 176/38/63
f 170/33/64 172/32/64 174/36/64 171/35/64
f 173/40/65 178/39/65 180/37/65 174/36/65
f 179/44/66 177/43/66 176/38/66 180/37/66
f 189/38/67 182/35/67 181/47/67 187/49/67
f 182/35/68 185/36/68 184/34/68 183/33/68
f 185/36/69 191/37/69 190/42/69 186/41/69
f 191/37/70 189/38/70 188/46/70 192/45/70
f 169/47/71 181/47/71 183/33/71 170/33/71
f 172/32/72 184/34/72 186/41/72 173/40/72
f 177/43/73 188/46/73 187/49/73 175/48/73
f 178/39/74 190/42/74 192/45/74 179/44/74
f 169/47/75 175/48/75 187/49/75 181/47/75
