# Blender 4.0.1
# www.blender.org
mtllib panel_A1.mtl
o Text
v -1.233987 0.080000 1.199376
v -1.249327 0.100000 1.178888
v -1.252271 0.080000 1.181092
v -0.962241 0.080000 1.199376
v -0.943957 0.080000 1.181092
v -0.947491 0.100000 1.178973
v -0.943957 0.080000 -0.927953
v -0.962241 0.080000 -0.946236
v -0.946901 0.100000 -0.925749
v -1.233987 0.080000 -0.946236
v -1.252271 0.080000 -0.927953
v -1.248737 0.100000 -0.925833
v 0.669378 0.080000 1.211960
v 0.662975 0.100000 1.193677
v 0.643667 0.080000 1.195253
v 0.849889 0.080000 1.211960
v 0.875354 0.080000 1.195146
v 0.856100 0.100000 1.193677
v 1.782786 0.080000 -0.929422
v 1.771684 0.080000 -0.946236
v 1.762277 0.100000 -0.927953
v 1.493645 0.080000 -0.946236
v 1.468170 0.080000 -0.929427
v 1.487426 0.100000 -0.927953
v 1.186517 0.080000 -0.313878
v 1.216865 0.100000 -0.295595
v 1.211993 0.080000 -0.330688
v 0.310727 0.080000 -0.313878
v 0.284903 0.080000 -0.330534
v 0.280652 0.100000 -0.295595
v -0.012131 0.080000 -0.946236
v -0.005640 0.100000 -0.927953
v 0.013693 0.080000 -0.929580
v -0.301026 0.080000 -0.929530
v -0.280315 0.100000 -0.927953
v -0.290170 0.080000 -0.946236
v 0.756914 0.080000 0.723349
v 0.764987 0.100000 0.786417
v 0.771331 0.080000 0.723152
v 0.425724 0.080000 -0.020323
v 0.436569 0.080000 -0.037025
v 0.390129 0.100000 -0.055309
v 1.078272 0.080000 -0.020126
v 1.112582 0.100000 -0.055309
v 1.066967 0.080000 -0.037025
v -1.233987 0.020000 1.199376
v -1.252271 0.020000 1.181092
v -1.249327 0.000000 1.178888
v -0.962241 0.020000 1.199376
v -0.947491 0.000000 1.178973
v -0.943957 0.020000 1.181092
v -0.943957 0.020000 -0.927953
v -0.946901 0.000000 -0.925749
v -0.962241 0.020000 -0.946236
v -1.233987 0.020000 -0.946236
v -1.248737 0.000000 -0.925833
v -1.252271 0.020000 -0.927953
v 0.669378 0.020000 1.211960
v 0.643667 0.020000 1.195253
v 0.662975 0.000000 1.193677
v 0.849889 0.020000 1.211960
v 0.856100 0.000000 1.193677
v 0.875354 0.020000 1.195146
v 1.782786 0.020000 -0.929422
v 1.762277 0.000000 -0.927953
v 1.771684 0.020000 -0.946236
v 1.493645 0.020000 -0.946236
v 1.487426 0.000000 -0.927953
v 1.468170 0.020000 -0.929427
v 1.186517 0.020000 -0.313878
v 1.211993 0.020000 -0.330688
v 1.216865 0.000000 -0.295595
v 0.310727 0.020000 -0.313878
v 0.280652 0.000000 -0.295595
v 0.284903 0.020000 -0.330534
v -0.012131 0.020000 -0.946236
v 0.013693 0.020000 -0.929580
v -0.005640 0.000000 -0.927953
v -0.301026 0.020000 -0.929530
v -0.290170 0.020000 -0.946236
v -0.280316 0.000000 -0.927953
v 0.756914 0.020000 0.723349
v 0.771331 0.020000 0.723152
v 0.764987 0.000000 0.786417
v 0.425724 0.020000 -0.020323
v 0.390129 0.000000 -0.055309
v 0.436569 0.020000 -0.037025
v 1.078272 0.020000 -0.020126
v 1.066967 0.020000 -0.037025
v 1.112582 0.000000 -0.055309
vn -0.0000 1.0000 -0.0000
vn -1.0000 -0.0000 -0.0000
vn -0.9138 -0.0000 0.4063
vn 0.9196 -0.0000 0.3928
vn -0.9194 -0.0000 -0.3934
vn 0.9135 -0.0000 -0.4068
vn -0.0000 -0.0000 -1.0000
vn 0.9110 -0.0000 -0.4124
vn -0.0000 -1.0000 -0.0000
vn -0.0000 -0.0000 1.0000
vn -0.9243 -0.0000 -0.3817
vn 1.0000 -0.0000 -0.0000
vn -0.6957 0.1791 0.6957
vn 0.6934 0.1960 0.6934
vn 0.6957 0.1791 -0.6957
vn -0.6934 0.1960 -0.6934
vn -0.4688 0.5095 0.7215
vn 0.4742 0.5093 0.7182
vn 0.6214 0.6674 -0.4103
vn -0.4740 0.5093 -0.7183
vn -0.2921 0.8478 -0.4426
vn 0.2894 0.8455 -0.4488
vn 0.4663 0.5096 -0.7230
vn -0.6198 0.6735 -0.4027
vn -0.0041 0.9534 -0.3018
vn 0.3175 0.9256 0.2061
vn -0.3192 0.9233 0.2136
vn -0.6957 -0.1791 0.6957
vn 0.6934 -0.1960 0.6934
vn 0.6957 -0.1791 -0.6957
vn -0.6934 -0.1960 -0.6934
vn -0.4688 -0.5095 0.7215
vn 0.4742 -0.5093 0.7182
vn 0.6214 -0.6674 -0.4103
vn -0.4740 -0.5093 -0.7183
vn -0.2921 -0.8478 -0.4426
vn 0.2894 -0.8455 -0.4488
vn 0.4663 -0.5096 -0.7230
vn -0.6198 -0.6735 -0.4027
vn -0.0041 -0.9534 -0.3018
vn 0.3175 -0.9256 0.2061
vn -0.3192 -0.9233 0.2136
vn -0.0001 0.7148 0.6993
vn 0.9871 0.1599 0.0001
vn 0.0001 0.7148 -0.6993
vn -0.0000 0.6747 0.7381
vn 0.6788 0.6747 0.2899
vn -0.0000 0.6747 -0.7381
vn 0.6742 0.6747 -0.3003
vn -0.9871 0.1599 -0.0001
vn -0.6744 0.6747 0.2999
vn -0.6786 0.6747 -0.2903
vn -0.6822 0.6747 -0.2817
vn 0.6724 0.6747 -0.3044
vn -0.0001 -0.7148 0.6993
vn 0.9871 -0.1599 0.0001
vn 0.0001 -0.7148 -0.6993
vn -0.0000 -0.6747 0.7381
vn 0.6788 -0.6747 0.2899
vn -0.0000 -0.6747 -0.7381
vn 0.6742 -0.6747 -0.3003
vn -0.9871 -0.1599 -0.0001
vn -0.6744 -0.6747 0.2999
vn -0.6786 -0.6747 -0.2903
vn -0.6822 -0.6747 -0.2817
vn 0.6724 -0.6747 -0.3044
vn -0.7071 -0.0000 0.7071
vn 0.7071 -0.0000 0.7071
vn 0.7071 -0.0000 -0.7071
vn -0.7071 -0.0000 -0.7071
vn -0.5449 -0.0000 0.8385
vn 0.5510 -0.0000 0.8345
vn 0.8345 -0.0000 -0.5510
vn -0.5507 -0.0000 -0.8347
vn 0.5420 -0.0000 -0.8404
vn -0.8385 -0.0000 -0.5449
vn -0.0137 -0.0000 -0.9999
vn 0.8387 -0.0000 0.5446
vn -0.8312 -0.0000 0.5560
vt 0.660301 0.000000
vt 0.986670 0.000000
vt 0.006366 0.000000
vt 0.008521 0.000000
vt 0.991479 0.000000
vt 0.005419 0.000000
vt 0.694581 0.000000
vt 0.694581 0.000000
vt 0.005419 0.000000
vt 0.199221 0.000000
vt 0.100779 0.000000
vt 0.100779 0.000000
vt 0.199221 0.000000
vt 0.298807 0.000000
vt 0.655881 0.000000
vt -0.010739 0.000000
vt 0.397342 0.000000
vt 0.302658 0.000000
vt 0.397342 0.000000
vt 0.897851 0.000000
vt 0.802149 0.000000
vt 0.802149 0.000000
vt 0.897851 0.000000
vt 0.258543 0.000000
vt 0.942584 0.000000
vt 0.725945 0.000000
vt 0.497996 0.000000
vt 0.402004 0.000000
vt 0.603488 0.000000
vt 0.690796 0.000000
vt 0.503488 0.000000
vt 0.694189 0.000000
vt 0.605812 0.000000
vt 0.294189 0.000000
vt 0.205812 0.000000
vt 0.294188 0.000000
vt 0.597366 0.000000
vt 0.502634 0.000000
vt 0.502634 0.000000
vt 0.006366 0.000000
vt 0.189994 0.000000
vt 0.091689 0.000000
vt 0.002723 0.000000
vt 0.744952 0.000000
vt 0.045997 0.000000
vt 0.734137 0.000000
vt 0.209206 0.000000
vt 0.396570 0.000000
vt 0.296570 0.000000
vt 0.298807 0.000000
vt 0.165388 0.000000
vt 1.033266 0.000000
vt 0.514475 0.000000
vt 0.442616 0.000000
vt 0.963290 0.000000
vt 0.854971 0.000000
vt 0.426005 0.000000
vt 0.875759 0.000000
vt 0.528619 0.000000
vt 0.503488 0.000000
vt 0.882638 0.000000
vt 0.774319 0.000000
vt 0.717343 0.000000
vt 0.725945 0.000000
vt 0.597836 0.000000
vt 0.944092 0.000000
vt 0.655976 0.000000
vt 0.332682 0.000000
vt 0.980233 0.000000
vt 0.686434 0.000000
vt 0.091578 0.000000
vt 0.008422 0.000000
vt 0.008422 0.000000
vt 0.091578 0.000000
vt 0.189994 0.000000
vt 0.296570 0.000000
vt 0.396570 0.000000
vt 0.804349 0.000000
vt 0.995651 0.000000
vt 0.995651 0.000000
vt 0.663826 0.000000
vt 0.336174 0.000000
vt 0.336174 0.000000
vt 0.734137 0.000000
vt 0.854971 0.000000
vt 0.963290 0.000000
vt 0.997259 0.000000
vt 0.902741 0.000000
vt 0.902741 0.000000
vt 0.997259 0.000000
vt 0.882638 0.000000
vt 0.717343 0.000000
vt 0.774319 0.000000
vt 0.655975 0.000000
vt 0.019767 0.000000
vt 0.313566 0.000000
vt 0.313566 0.000000
s 0
usemtl white_mat
f 9/1/1 12/2/1 2/3/1
f 3/4/2 11/5/2 57/5/2 47/4/2
f 15/6/3 34/7/3 79/8/3 59/9/3
f 19/10/4 17/11/4 63/12/4 64/13/4
f 21/14/1 38/15/1 14/16/1
f 27/17/5 23/18/5 69/18/5 71/19/5
f 40/20/6 37/21/6 82/22/6 85/23/6
f 21/24/1 44/25/1 38/26/1
f 28/27/7 25/28/7 70/28/7 73/27/7
f 32/29/1 35/30/1 30/31/1
f 36/32/7 31/33/7 76/33/7 80/32/7
f 22/34/7 20/35/7 66/35/7 67/36/7
f 33/37/8 29/38/8 75/39/8 77/37/8
f 53/1/9 48/40/9 56/2/9
f 65/41/9 62/42/9 60/43/9
f 84/44/9 60/45/9 81/46/9
f 65/47/9 72/48/9 68/49/9
f 65/50/9 60/16/9 84/15/9
f 65/51/9 90/52/9 72/53/9
f 72/54/9 90/55/9 86/56/9
f 72/57/9 86/58/9 74/59/9
f 78/29/9 74/60/9 81/30/9
f 86/61/9 84/62/9 81/63/9
f 65/24/9 84/64/9 90/25/9
f 74/65/9 86/66/9 81/67/9
f 9/1/1 2/40/1 6/68/1
f 10/69/7 8/70/7 54/70/7 55/69/7
f 16/71/10 13/72/10 58/73/10 61/74/10
f 21/75/1 14/43/1 18/42/1
f 21/47/1 24/76/1 26/77/1
f 26/57/1 30/59/1 42/58/1
f 39/78/11 43/79/11 88/80/11 83/78/11
f 7/81/12 5/82/12 51/83/12 52/81/12
f 21/51/1 26/53/1 44/52/1
f 38/44/1 35/84/1 14/45/1
f 26/54/1 42/85/1 44/86/1
f 45/87/10 41/88/10 87/89/10 89/90/10
f 42/91/1 35/92/1 38/93/1
f 53/1/9 50/68/9 48/3/9
f 30/65/1 35/94/1 42/66/1
f 1/95/13 2/3/13 3/4/13
f 4/96/14 5/82/14 6/68/14
f 7/81/15 8/70/15 9/1/15
f 10/69/16 11/5/16 12/2/16
f 13/72/17 14/45/17 15/6/17
f 16/71/18 17/11/18 18/42/18
f 19/10/19 20/35/19 21/75/19
f 22/34/20 23/18/20 24/76/20
f 25/28/21 26/77/21 27/17/21
f 28/27/22 29/38/22 30/59/22
f 31/33/23 32/29/23 33/37/23
f 34/7/24 35/30/24 36/32/24
f 37/21/25 38/26/25 39/78/25
f 40/20/26 41/88/26 42/91/26
f 43/79/27 44/86/27 45/87/27
f 46/95/28 47/4/28 48/3/28
f 49/97/29 50/68/29 51/83/29
f 52/81/30 53/1/30 54/70/30
f 55/69/31 56/2/31 57/5/31
f 58/73/32 59/9/32 60/43/32
f 61/74/33 62/42/33 63/12/33
f 64/13/34 65/47/34 66/35/34
f 67/36/35 68/49/35 69/18/35
f 70/28/36 71/19/36 72/57/36
f 73/27/37 74/60/37 75/39/37
f 76/33/38 77/37/38 78/29/38
f 79/8/39 80/32/39 81/46/39
f 82/22/40 83/78/40 84/62/40
f 85/23/41 86/56/41 87/89/41
f 88/80/42 89/90/42 90/25/42
f 1/95/43 4/96/43 6/68/43 2/40/43
f 5/82/44 7/81/44 9/1/44 6/68/44
f 8/70/45 10/69/45 12/2/45 9/1/45
f 13/72/46 16/71/46 18/42/46 14/43/46
f 17/11/47 19/10/47 21/75/47 18/42/47
f 25/28/48 28/27/48 30/59/48 26/57/48
f 37/21/49 40/20/49 42/91/49 38/93/49
f 2/3/50 12/2/50 11/5/50 3/4/50
f 20/35/48 22/34/48 24/76/48 21/47/48
f 14/45/51 35/84/51 34/7/51 15/6/51
f 23/18/52 27/17/52 26/77/52 24/76/52
f 38/26/53 44/25/53 43/79/53 39/78/53
f 31/33/48 36/32/48 35/30/48 32/29/48
f 41/88/46 45/87/46 44/86/46 42/85/46
f 29/38/54 33/37/54 32/29/54 30/31/54
f 48/3/55 50/68/55 49/97/55 46/95/55
f 50/68/56 53/1/56 52/81/56 51/83/56
f 53/1/57 56/2/57 55/69/57 54/70/57
f 60/43/58 62/42/58 61/74/58 58/73/58
f 62/42/59 65/41/59 64/13/59 63/12/59
f 72/57/60 74/59/60 73/27/60 70/28/60
f 84/62/61 86/61/61 85/23/61 82/22/61
f 47/4/62 57/5/62 56/2/62 48/40/62
f 65/47/60 68/49/60 67/36/60 66/35/60
f 59/9/63 79/8/63 81/46/63 60/45/63
f 68/49/64 72/48/64 71/19/64 69/18/64
f 83/78/65 88/80/65 90/25/65 84/64/65
f 78/29/60 81/30/60 80/32/60 76/33/60
f 86/56/58 90/55/58 89/90/58 87/89/58
f 74/60/66 78/29/66 77/37/66 75/39/66
f 3/4/67 47/4/67 46/95/67 1/95/67
f 4/96/68 49/97/68 51/83/68 5/82/68
f 7/81/69 52/81/69 54/70/69 8/70/69
f 10/69/70 55/69/70 57/5/70 11/5/70
f 15/6/71 59/9/71 58/73/71 13/72/71
f 16/71/72 61/74/72 63/12/72 17/11/72
f 19/10/73 64/13/73 66/35/73 20/35/73
f 22/34/74 67/36/74 69/18/74 23/18/74
f 27/17/74 71/19/74 70/28/74 25/28/74
f 28/27/75 73/27/75 75/39/75 29/38/75
f 33/37/75 77/37/75 76/33/75 31/33/75
f 36/32/76 80/32/76 79/8/76 34/7/76
f 39/78/77 83/78/77 82/22/77 37/21/77
f 40/20/78 85/23/78 87/89/78 41/88/78
f 45/87/79 89/90/79 88/80/79 43/79/79
f 4/96/10 1/95/10 46/95/10 49/97/10
o Plane
v 2.000000 -0.020000 -1.980000
v 1.980000 -0.020000 -2.000000
v 1.980000 0.000000 -1.980000
v -1.980000 -0.020000 -2.000000
v -2.000000 -0.020000 -1.980000
v -1.980000 0.000000 -1.980000
v 2.000000 -0.020000 1.980000
v 1.980000 0.000000 1.980000
v 1.980000 -0.020000 2.000000
v -2.000000 -0.020000 1.980000
v -1.980000 -0.020000 2.000000
v -1.980000 0.000000 1.980000
v 2.000000 -0.080000 -1.980000
v 1.980000 -0.100000 -1.980000
v 1.980000 -0.080000 -2.000000
v -1.980000 -0.080000 -2.000000
v -1.980000 -0.100000 -1.980000
v -2.000000 -0.080000 -1.980000
v 2.000000 -0.080000 1.980000
v 1.980000 -0.080000 2.000000
v 1.980000 -0.100000 1.980000
v -2.000000 -0.080000 1.980000
v -1.980000 -0.100000 1.980000
v -1.980000 -0.080000 2.000000
vn -0.0000 -0.0000 -1.0000
vn -0.0000 1.0000 -0.0000
vn -1.0000 -0.0000 -0.0000
vn -0.0000 -0.0000 1.0000
vn -0.0000 -1.0000 -0.0000
vn 0.5774 0.5774 -0.5774
vn -0.5774 0.5774 -0.5774
vn 0.5774 0.5774 0.5774
vn -0.5774 0.5774 0.5774
vn 0.5774 -0.5774 -0.5774
vn -0.5774 -0.5774 -0.5774
vn 0.5774 -0.5774 0.5773
vn -0.5774 -0.5774 0.5773
vn 0.7071 0.7071 -0.0000
vn -0.0000 0.7071 -0.7071
vn -0.7071 0.7071 -0.0000
vn -0.0000 0.7071 0.7071
vn 0.7071 -0.7071 -0.0000
vn -0.0000 -0.7071 -0.7071
vn -0.7071 -0.7071 -0.0000
vn -0.0000 -0.7071 0.7071
vn 0.7071 -0.0000 -0.7071
vn -0.7071 -0.0000 -0.7071
vn 0.7071 -0.0000 0.7071
vn -0.7071 -0.0000 0.7071
vn 1.0000 -0.0000 -0.0000
vt 0.995000 0.000000
vt 0.005000 0.000000
vt 0.995000 0.000000
vt 0.005000 0.005000
vt 0.995000 0.005000
vt 0.995000 0.995000
vt 0.005000 0.995000
vt 1.000000 0.995000
vt 1.000000 0.005000
vt 1.000000 0.005000
vt 1.000000 0.995000
vt 0.005000 1.000000
vt 0.995000 1.000000
vt 0.995000 1.000000
vt 0.005000 1.000000
vt 0.000000 0.005000
vt 0.000000 0.995000
vt 0.000000 0.995000
s 0
usemtl blackPanel
f 94/98/80 92/99/80 105/99/80 106/100/80
f 93/101/81 96/102/81 102/103/81 98/104/81
f 100/105/82 95/106/82 108/107/82 112/108/82
f 99/109/83 101/110/83 114/111/83 110/112/83
f 104/101/84 111/104/84 113/103/84 107/102/84
f 91/113/85 92/99/85 93/101/85
f 94/98/86 95/106/86 96/102/86
f 97/114/87 98/104/87 99/109/87
f 100/105/88 101/110/88 102/103/88
f 103/113/89 104/101/89 105/99/89
f 106/100/90 107/102/90 108/107/90
f 109/115/91 110/112/91 111/104/91
f 112/108/92 113/103/92 114/111/92
f 97/114/93 91/113/93 93/101/93 98/104/93
f 92/99/94 94/98/94 96/102/94 93/101/94
f 95/106/95 100/105/95 102/103/95 96/102/95
f 101/110/96 99/109/96 98/104/96 102/103/96
f 111/104/97 104/101/97 103/113/97 109/115/97
f 104/101/98 107/102/98 106/100/98 105/99/98
f 107/102/99 113/103/99 112/108/99 108/107/99
f 113/103/100 111/104/100 110/112/100 114/111/100
f 91/113/101 103/113/101 105/99/101 92/99/101
f 94/98/102 106/100/102 108/107/102 95/106/102
f 99/109/103 110/112/103 109/115/103 97/114/103
f 100/105/104 112/108/104 114/111/104 101/110/104
f 91/113/105 97/114/105 109/115/105 103/113/105
