# Blender 3.4.1
# www.blender.org
mtllib triangle.mtl
o Cube
v -0.380000 -0.370000 0.490000
v -0.390000 -0.390000 0.500000
v -0.370000 -0.380000 0.490000
v -0.380000 0.200294 0.490000
v -0.372929 0.203223 0.490000
v -0.390000 0.234437 0.500000
v -0.380000 -0.370000 -0.490000
v -0.370000 -0.380000 -0.490000
v -0.390000 -0.390000 -0.500000
v -0.380000 0.200294 -0.490000
v -0.390000 0.234437 -0.500000
v -0.372929 0.203223 -0.490000
v 0.200294 -0.380000 0.490000
v 0.234437 -0.390000 0.500000
v 0.203223 -0.372929 0.490000
v 0.200294 -0.380000 -0.490000
v 0.203223 -0.372929 -0.490000
v 0.234437 -0.390000 -0.500000
v -0.490000 -0.500000 0.490000
v -0.490000 -0.490000 0.500000
v -0.500000 -0.490000 0.490000
v -0.490000 0.475858 0.500000
v -0.492929 0.492929 0.490000
v -0.500000 0.490000 0.490000
v 0.492929 -0.492929 0.490000
v 0.475858 -0.490000 0.500000
v 0.490000 -0.500000 0.490000
v -0.492929 0.492929 -0.490000
v -0.490000 0.475858 -0.500000
v -0.500000 0.490000 -0.490000
v -0.490000 -0.500000 -0.490000
v -0.500000 -0.490000 -0.490000
v -0.490000 -0.490000 -0.500000
v 0.475858 -0.490000 -0.500000
v 0.492929 -0.492929 -0.490000
v 0.490000 -0.500000 -0.490000
v -0.380000 0.200294 -0.310000
v -0.372929 0.203223 -0.310000
v -0.370000 0.186152 -0.300000
v -0.380000 -0.370000 -0.310000
v -0.370000 -0.370000 -0.300000
v -0.370000 -0.380000 -0.310000
v 0.200294 -0.380000 -0.310000
v 0.186152 -0.370000 -0.300000
v 0.203223 -0.372929 -0.310000
v -0.380000 -0.370000 0.310000
v -0.370000 -0.380000 0.310000
v -0.370000 -0.370000 0.300000
v -0.380000 0.200294 0.310000
v -0.370000 0.186152 0.300000
v -0.372929 0.203223 0.310000
v 0.200294 -0.380000 0.310000
v 0.203223 -0.372929 0.310000
v 0.186152 -0.370000 0.300000
vn 0.7071 0.7071 -0.0000
vn -0.0000 -1.0000 -0.0000
vn -0.0000 -0.0000 -1.0000
vn 1.0000 -0.0000 -0.0000
vn -1.0000 -0.0000 -0.0000
vn -0.0000 1.0000 -0.0000
vn -0.0000 -0.0000 1.0000
vn -0.7071 -0.7071 -0.0000
vn 0.3015 0.3015 0.9045
vn 0.1041 -0.2513 0.9623
vn 0.3015 0.3015 -0.9045
vn 0.1041 -0.2513 -0.9623
vn -0.2513 0.1041 0.9623
vn -0.2513 0.1041 -0.9623
vn -0.5774 -0.5774 0.5774
vn -0.1949 0.4706 0.8605
vn 0.4706 -0.1949 0.8605
vn -0.1949 0.4706 -0.8605
vn -0.5774 -0.5774 -0.5774
vn 0.4706 -0.1949 -0.8605
vn 0.1949 -0.4706 -0.8605
vn 0.5774 0.5774 -0.5774
vn -0.4706 0.1949 -0.8605
vn 0.5774 0.5774 0.5774
vn 0.1949 -0.4706 0.8605
vn -0.4706 0.1949 0.8605
vn -0.7071 -0.0000 0.7071
vn -0.3827 0.9239 -0.0000
vn -0.7071 -0.0000 -0.7071
vn -0.0000 -0.7071 -0.7071
vn 0.9239 -0.3827 -0.0000
vn -0.0000 -0.7071 0.7071
vn 0.5000 0.5000 -0.7071
vn 0.5000 0.5000 0.7071
vn 0.7071 -0.0000 0.7071
vn -0.0000 0.7071 0.7071
vn -0.5000 -0.5000 0.7071
vn 0.7071 -0.0000 -0.7071
vn -0.0000 0.7071 -0.7071
vn -0.5000 -0.5000 -0.7071
vn -0.9239 0.3827 -0.0000
vn 0.3827 -0.9239 -0.0000
vt 0.407500 0.970000
vt 0.402500 0.972500
vt 0.405000 0.967500
vt 0.550074 0.970000
vt 0.550806 0.968232
vt 0.558609 0.972500
vt 0.236250 0.483750
vt 0.232500 0.485000
vt 0.221250 0.486250
vt 0.592684 0.412463
vt 0.611523 0.408195
vt 0.596282 0.412097
vt 0.405000 0.824926
vt 0.402500 0.816391
vt 0.406768 0.824194
vt 0.375074 0.485000
vt 0.380225 0.484116
vt 0.377359 0.486250
vt 0.375000 0.002500
vt 0.127500 0.747500
vt 0.377500 0.997500
vt 0.377500 0.000000
vt 0.127500 0.750000
vt 0.125000 0.747500
vt 0.377500 0.002500
vt 0.618964 0.997500
vt 0.618964 0.000000
vt 0.743598 0.872866
vt 0.625000 0.002500
vt 0.747348 0.869475
vt 0.748125 0.869670
vt 0.622500 0.002500
vt 0.377652 0.748025
vt 0.377500 0.756036
vt 0.368964 0.750000
vt 0.381402 0.752134
vt 0.376875 0.747830
vt 0.372500 0.747500
vt 0.625000 0.247500
vt 0.747348 0.380525
vt 0.743598 0.377134
vt 0.618964 0.250000
vt 0.737411 0.378018
vt 0.748125 0.380330
vt 0.622500 0.247500
vt 0.375000 0.247500
vt 0.127500 0.502500
vt 0.377500 0.247500
vt 0.377500 0.250000
vt 0.133750 0.498750
vt 0.375214 0.498750
vt 0.377652 0.501975
vt 0.372500 0.502500
vt 0.592684 0.412463
vt 0.596282 0.412097
vt 0.586345 0.414231
vt 0.236250 0.483750
vt 0.238750 0.483750
vt 0.232500 0.485000
vt 0.375074 0.485000
vt 0.377788 0.483750
vt 0.380225 0.484116
vt 0.407500 0.970000
vt 0.405000 0.967500
vt 0.407500 0.967500
vt 0.550074 0.970000
vt 0.546538 0.967500
vt 0.550806 0.968232
vt 0.405000 0.824926
vt 0.406768 0.824194
vt 0.407500 0.828462
s 0
f 35/52/1 28/40/1 23/30/1 25/33/1
f 31/47/2 36/53/2 27/38/2 19/20/2
f 41/58/3 39/56/3 44/61/3
f 7/7/4 10/10/4 37/54/4 40/57/4
f 21/25/5 24/32/5 30/45/5 32/48/5
f 3/3/6 13/13/6 52/69/6 47/64/6
f 6/6/7 14/14/7 26/34/7 22/26/7
f 15/15/8 5/5/8 51/68/8 53/70/8
f 16/16/6 8/8/6 42/59/6 43/60/6
f 11/11/3 9/9/3 33/50/3 29/43/3
f 12/12/8 17/17/8 45/62/8 38/55/8
f 54/71/7 50/67/7 48/65/7
f 18/18/3 11/11/3 29/43/3 34/51/3
f 9/9/3 18/18/3 34/51/3 33/50/3
f 14/14/7 2/2/7 20/21/7 26/34/7
f 2/2/7 6/6/7 22/26/7 20/21/7
f 1/1/9 2/2/9 3/3/9
f 4/4/10 5/5/10 6/6/10
f 7/7/11 8/8/11 9/9/11
f 10/10/12 11/11/12 12/12/12
f 13/13/13 14/14/13 15/15/13
f 16/16/14 17/17/14 18/18/14
f 19/20/15 20/23/15 21/24/15
f 22/28/16 23/30/16 24/31/16
f 25/33/17 26/36/17 27/37/17
f 28/40/18 29/41/18 30/44/18
f 31/46/19 32/48/19 33/49/19
f 34/51/20 35/52/20 36/53/20
f 37/54/21 38/55/21 39/56/21
f 40/57/22 41/58/22 42/59/22
f 43/60/23 44/61/23 45/62/23
f 46/63/24 47/64/24 48/65/24
f 49/66/25 50/67/25 51/68/25
f 52/69/26 53/70/26 54/71/26
f 31/46/8 19/19/8 21/25/8 32/48/8
f 20/22/27 22/27/27 24/32/27 21/25/27
f 23/29/28 28/39/28 30/45/28 24/32/28
f 29/42/29 33/49/29 32/48/29 30/45/29
f 36/53/30 31/47/30 33/50/30 34/51/30
f 27/38/31 36/53/31 35/52/31 25/33/31
f 19/20/32 27/38/32 26/35/32 20/23/32
f 28/40/33 35/52/33 34/51/33 29/43/33
f 22/28/34 26/36/34 25/33/34 23/30/34
f 1/1/35 4/4/35 6/6/35 2/2/35
f 2/2/36 14/14/36 13/13/36 3/3/36
f 5/5/37 15/15/37 14/14/37 6/6/37
f 10/10/38 7/7/38 9/9/38 11/11/38
f 18/18/39 9/9/39 8/8/39 16/16/39
f 11/11/40 18/18/40 17/17/40 12/12/40
f 39/56/38 41/58/38 40/57/38 37/54/38
f 43/60/39 42/59/39 41/58/39 44/61/39
f 38/55/40 45/62/40 44/61/40 39/56/40
f 16/16/41 43/60/41 45/62/41 17/17/41
f 37/54/42 10/10/42 12/12/42 38/55/42
f 7/7/1 40/57/1 42/59/1 8/8/1
f 48/65/35 50/67/35 49/66/35 46/63/35
f 47/64/36 52/69/36 54/71/36 48/65/36
f 50/67/37 54/71/37 53/70/37 51/68/37
f 4/4/42 49/66/42 51/68/42 5/5/42
f 52/69/41 13/13/41 15/15/41 53/70/41
f 46/63/1 1/1/1 3/3/1 47/64/1
f 4/4/4 1/1/4 46/63/4 49/66/4
