# Blender 4.0.1
# www.blender.org
mtllib R_key.mtl
o Cube
v 0.427331 -0.496863 0.000000
v 0.423587 -0.519095 -0.028977
v 0.453697 -0.487835 -0.029779
v 0.349062 -0.355381 -0.639634
v 0.345733 -0.317612 -0.668611
v 0.379368 -0.324552 -0.638832
v 0.427331 0.363535 0.000000
v 0.453697 0.363535 -0.029779
v 0.423447 0.393535 -0.030000
v 0.345733 0.363535 -0.668611
v 0.349172 0.393535 -0.638611
v 0.379368 0.363535 -0.638832
v -0.427331 -0.496863 0.000000
v -0.453697 -0.487835 -0.029779
v -0.423587 -0.519095 -0.028977
v -0.345733 -0.317612 -0.668611
v -0.349062 -0.355381 -0.639634
v -0.379368 -0.324552 -0.638832
v -0.423447 0.393535 -0.030000
v -0.453697 0.363535 -0.029779
v -0.427331 0.363535 0.000000
v -0.349172 0.393535 -0.638611
v -0.345733 0.363535 -0.668611
v -0.379368 0.363535 -0.638832
vn -0.0000 -0.9659 -0.2589
vn -0.9926 -0.0000 -0.1211
vn -0.0000 -0.0000 -1.0000
vn 0.9926 -0.0000 -0.1211
vn -0.0000 1.0000 -0.0000
vn 0.6658 -0.6311 0.3981
vn 0.5183 -0.4913 -0.6999
vn 0.5961 0.6050 0.5278
vn 0.5500 0.5582 -0.6212
vn -0.6658 -0.6311 0.3981
vn -0.5183 -0.4913 -0.6999
vn -0.5961 0.6050 0.5278
vn -0.5500 0.5582 -0.6212
vn 0.7487 -0.0000 0.6629
vn 0.6911 -0.6725 -0.2646
vn 0.6629 -0.0000 -0.7487
vn 0.7019 0.7071 -0.0857
vn -0.7019 0.7071 -0.0857
vn -0.7487 -0.0000 0.6629
vn -0.6629 -0.0000 -0.7487
vn -0.6911 -0.6725 -0.2646
vn -0.0000 0.7071 0.7071
vn -0.0000 -0.6087 -0.7934
vn -0.0000 0.7071 -0.7071
vn -0.0000 -0.7934 0.6087
vn -0.0000 -0.0000 1.0000
vt 0.614165 0.759610
vt 0.614165 0.990391
vt 0.385835 0.991450
vt 0.385835 0.758549
vt 0.386135 0.508533
vt 0.613865 0.509698
vt 0.613865 0.740128
vt 0.386135 0.741301
vt 0.634980 0.510119
vt 0.865020 0.510119
vt 0.865020 0.739881
vt 0.634980 0.739881
vt 0.386135 0.008699
vt 0.613865 0.009872
vt 0.613865 0.240302
vt 0.386135 0.241467
vt 0.386217 0.258557
vt 0.613783 0.259605
vt 0.613783 0.490395
vt 0.386217 0.491443
vt 0.133200 0.741851
vt 0.134223 0.747890
vt 0.125993 0.739399
vt 0.615434 0.000000
vt 0.625000 0.010119
vt 0.133200 0.508149
vt 0.125993 0.508149
vt 0.134261 0.500000
vt 0.625000 0.239881
vt 0.615142 0.250000
vt 0.366800 0.741851
vt 0.374007 0.739399
vt 0.365777 0.747890
vt 0.625000 0.759980
vt 0.616729 0.750000
vt 0.365739 0.500000
vt 0.374007 0.508149
vt 0.366800 0.508149
vt 0.625000 0.490020
vt 0.613865 0.500000
vt 0.125000 0.739399
vt 0.125000 0.508149
vt 0.387103 0.000000
vt 0.625000 0.990020
vt 0.625000 0.259980
vt 0.365777 0.750000
vt 0.134223 0.750000
s 0
usemtl white_mat
f 17/1/1 4/2/1 2/3/1 15/4/1
f 20/5/2 24/6/2 18/7/2 14/8/2
f 23/9/3 10/10/3 5/11/3 16/12/3
f 3/13/4 6/14/4 12/15/4 8/16/4
f 9/17/5 11/18/5 22/19/5 19/20/5
f 1/21/6 2/22/6 3/23/6
f 4/24/7 5/25/7 6/14/7
f 7/26/8 8/27/8 9/28/8
f 10/29/9 11/30/9 12/15/9
f 13/31/10 14/32/10 15/33/10
f 16/34/11 17/1/11 18/35/11
f 19/36/12 20/37/12 21/38/12
f 22/19/13 23/39/13 24/40/13
f 7/26/14 1/21/14 3/41/14 8/42/14
f 2/43/15 4/24/15 6/14/15 3/13/15
f 5/25/16 10/29/16 12/15/16 6/14/16
f 11/18/17 9/17/17 8/16/17 12/15/17
f 24/6/18 20/5/18 19/20/18 22/19/18
f 13/31/19 21/38/19 20/5/19 14/8/19
f 23/9/20 16/12/20 18/7/20 24/6/20
f 17/1/21 15/4/21 14/8/21 18/7/21
f 21/38/22 7/26/22 9/28/22 19/36/22
f 16/34/23 5/44/23 4/2/23 17/1/23
f 10/45/24 23/39/24 22/19/24 11/18/24
f 1/21/25 13/31/25 15/46/25 2/47/25
f 7/26/26 21/38/26 13/31/26 1/21/26
o Text
v 0.129307 0.220707 -0.689432
v 0.129307 -0.173330 -0.689432
v 0.072686 -0.173330 -0.689432
v 0.072686 -0.002311 -0.689432
v 0.048997 -0.002311 -0.689432
v 0.041864 -0.002540 -0.689432
v 0.034831 -0.003370 -0.689432
v 0.027782 -0.005019 -0.689432
v 0.020601 -0.007704 -0.689432
v 0.013171 -0.011640 -0.689432
v 0.005376 -0.017044 -0.689432
v -0.002901 -0.024134 -0.689432
v -0.011775 -0.033125 -0.689432
v -0.021364 -0.044235 -0.689432
v -0.031783 -0.057680 -0.689432
v -0.043149 -0.073677 -0.689432
v -0.055579 -0.092443 -0.689432
v -0.107578 -0.173330 -0.689432
v -0.175177 -0.173330 -0.689432
v -0.168735 -0.164425 -0.689432
v -0.162931 -0.156398 -0.689432
v -0.157681 -0.149118 -0.689432
v -0.152900 -0.142452 -0.689432
v -0.148505 -0.136267 -0.689432
v -0.144410 -0.130431 -0.689432
v -0.140533 -0.124812 -0.689432
v -0.136787 -0.119277 -0.689432
v -0.133090 -0.113694 -0.689432
v -0.129356 -0.107930 -0.689432
v -0.125503 -0.101854 -0.689432
v -0.121444 -0.095332 -0.689432
v -0.114089 -0.083319 -0.689432
v -0.106995 -0.071836 -0.689432
v -0.100085 -0.060882 -0.689432
v -0.093283 -0.050458 -0.689432
v -0.086514 -0.040564 -0.689432
v -0.079700 -0.031199 -0.689432
v -0.072767 -0.022364 -0.689432
v -0.065636 -0.014059 -0.689432
v -0.058233 -0.006283 -0.689432
v -0.050480 0.000963 -0.689432
v -0.042303 0.007679 -0.689432
v -0.033624 0.013866 -0.689432
v -0.043780 0.018413 -0.689432
v -0.053147 0.023662 -0.689432
v -0.061708 0.029593 -0.689432
v -0.069445 0.036185 -0.689432
v -0.076339 0.043420 -0.689432
v -0.082373 0.051277 -0.689432
v -0.087527 0.059735 -0.689432
v -0.091785 0.068776 -0.689432
v -0.095129 0.078378 -0.689432
v -0.097539 0.088521 -0.689432
v -0.098999 0.099187 -0.689432
v -0.099489 0.110354 -0.689432
v -0.098465 0.126847 -0.689432
v -0.095439 0.142200 -0.689432
v -0.090479 0.156358 -0.689432
v -0.083654 0.169264 -0.689432
v -0.075031 0.180863 -0.689432
v -0.064679 0.191097 -0.689432
v -0.052665 0.199910 -0.689432
v -0.039059 0.207247 -0.689432
v -0.023928 0.213052 -0.689432
v -0.007340 0.217267 -0.689432
v 0.010635 0.219838 -0.689432
v 0.029931 0.220707 -0.689432
v 0.072686 0.172175 -0.689432
v 0.036286 0.172175 -0.689432
v 0.023244 0.171710 -0.689432
v 0.011533 0.170334 -0.689432
v 0.001115 0.168076 -0.689432
v -0.008052 0.164963 -0.689432
v -0.016007 0.161024 -0.689432
v -0.022790 0.156286 -0.689432
v -0.028442 0.150778 -0.689432
v -0.033003 0.144527 -0.689432
v -0.036512 0.137563 -0.689432
v -0.039011 0.129912 -0.689432
v -0.040538 0.121603 -0.689432
v -0.041135 0.112665 -0.689432
v -0.040891 0.104485 -0.689432
v -0.039813 0.096479 -0.689432
v -0.037812 0.088750 -0.689432
v -0.034800 0.081401 -0.689432
v -0.030689 0.074533 -0.689432
v -0.025390 0.068249 -0.689432
v -0.018816 0.062651 -0.689432
v -0.010877 0.057841 -0.689432
v -0.001485 0.053922 -0.689432
v 0.009447 0.050996 -0.689432
v 0.022008 0.049165 -0.689432
v 0.036286 0.048532 -0.689432
v 0.072686 0.048532 -0.689432
v 0.129307 0.220707 -0.631655
v 0.129307 -0.173330 -0.631655
v 0.072686 -0.173330 -0.631655
v 0.072686 -0.002311 -0.631655
v 0.048997 -0.002311 -0.631655
v 0.041864 -0.002540 -0.631655
v 0.034831 -0.003370 -0.631655
v 0.027782 -0.005019 -0.631655
v 0.020601 -0.007704 -0.631655
v 0.013171 -0.011640 -0.631655
v 0.005376 -0.017044 -0.631655
v -0.002901 -0.024134 -0.631655
v -0.011775 -0.033125 -0.631655
v -0.021364 -0.044235 -0.631655
v -0.031783 -0.057680 -0.631655
v -0.043149 -0.073677 -0.631655
v -0.055579 -0.092443 -0.631655
v -0.107578 -0.173330 -0.631655
v -0.175177 -0.173330 -0.631655
v -0.168735 -0.164425 -0.631655
v -0.162931 -0.156398 -0.631655
v -0.157681 -0.149118 -0.631655
v -0.152900 -0.142452 -0.631655
v -0.148505 -0.136267 -0.631655
v -0.144410 -0.130431 -0.631655
v -0.140533 -0.124812 -0.631655
v -0.136787 -0.119277 -0.631655
v -0.133090 -0.113694 -0.631655
v -0.129356 -0.107930 -0.631655
v -0.125503 -0.101854 -0.631655
v -0.121444 -0.095332 -0.631655
v -0.114089 -0.083319 -0.631655
v -0.106995 -0.071836 -0.631655
v -0.100085 -0.060882 -0.631655
v -0.093283 -0.050458 -0.631655
v -0.086514 -0.040564 -0.631655
v -0.079700 -0.031199 -0.631655
v -0.072767 -0.022364 -0.631655
v -0.065636 -0.014059 -0.631655
v -0.058233 -0.006283 -0.631655
v -0.050480 0.000963 -0.631655
v -0.042303 0.007679 -0.631655
v -0.033624 0.013866 -0.631655
v -0.043780 0.018413 -0.631655
v -0.053147 0.023662 -0.631655
v -0.061708 0.029593 -0.631655
v -0.069445 0.036185 -0.631655
v -0.076339 0.043420 -0.631655
v -0.082373 0.051277 -0.631655
v -0.087527 0.059735 -0.631655
v -0.091785 0.068776 -0.631655
v -0.095129 0.078378 -0.631655
v -0.097539 0.088521 -0.631655
v -0.098999 0.099187 -0.631655
v -0.099489 0.110354 -0.631655
v -0.098465 0.126847 -0.631655
v -0.095439 0.142200 -0.631655
v -0.090479 0.156358 -0.631655
v -0.083654 0.169264 -0.631655
v -0.075031 0.180863 -0.631655
v -0.064679 0.191097 -0.631655
v -0.052665 0.199910 -0.631655
v -0.039059 0.207247 -0.631655
v -0.023928 0.213052 -0.631655
v -0.007340 0.217267 -0.631655
v 0.010635 0.219838 -0.631655
v 0.029931 0.220707 -0.631655
v 0.072686 0.172175 -0.631655
v 0.036286 0.172175 -0.631655
v 0.023244 0.171710 -0.631655
v 0.011533 0.170334 -0.631655
v 0.001115 0.168076 -0.631655
v -0.008052 0.164963 -0.631655
v -0.016007 0.161024 -0.631655
v -0.022790 0.156286 -0.631655
v -0.028442 0.150778 -0.631655
v -0.033003 0.144527 -0.631655
v -0.036512 0.137563 -0.631655
v -0.039011 0.129912 -0.631655
v -0.040538 0.121603 -0.631655
v -0.041135 0.112665 -0.631655
v -0.040891 0.104485 -0.631655
v -0.039813 0.096479 -0.631655
v -0.037812 0.088750 -0.631655
v -0.034800 0.081401 -0.631655
v -0.030689 0.074533 -0.631655
v -0.025390 0.068249 -0.631655
v -0.018816 0.062651 -0.631655
v -0.010877 0.057841 -0.631655
v -0.001485 0.053922 -0.631655
v 0.009447 0.050996 -0.631655
v 0.022008 0.049165 -0.631655
v 0.036286 0.048532 -0.631655
v 0.072686 0.048532 -0.631655
vn -0.0000 -0.0000 -1.0000
vn -0.0000 -0.0000 1.0000
vn 1.0000 -0.0000 -0.0000
vn -1.0000 -0.0000 -0.0000
vn 0.0320 -0.9995 -0.0000
vn 0.2278 -0.9737 -0.0000
vn 0.4681 -0.8837 -0.0000
vn 0.6505 -0.7595 -0.0000
vn 0.7570 -0.6534 -0.0000
vn 0.8152 -0.5792 -0.0000
vn 0.8412 -0.5408 -0.0000
vn -0.8151 0.5793 -0.0000
vn -0.4888 -0.8724 -0.0000
vn -0.8338 0.5521 -0.0000
vn -0.8445 0.5356 -0.0000
vn -0.6347 0.7728 -0.0000
vn -0.4086 -0.9127 -0.0000
vn -0.5695 -0.8220 -0.0000
vn -0.9908 -0.1356 -0.0000
vn -0.9981 0.0620 -0.0000
vn -0.9438 0.3306 -0.0000
vn -0.8025 0.5966 -0.0000
vn -0.5915 0.8063 -0.0000
vn -0.3582 0.9337 -0.0000
vn -0.1416 0.9899 -0.0000
vn -0.0000 1.0000 -0.0000
vn 0.0356 -0.9994 -0.0000
vn 0.2118 -0.9773 -0.0000
vn 0.4438 -0.8961 -0.0000
vn 0.6979 -0.7162 -0.0000
vn 0.8930 -0.4500 -0.0000
vn 0.9835 -0.1808 -0.0000
vn 0.9996 0.0297 -0.0000
vn 0.9681 0.2506 -0.0000
vn 0.8580 0.5136 -0.0000
vn 0.6483 0.7614 -0.0000
vn 0.3851 0.9229 -0.0000
vn 0.1442 0.9895 -0.0000
vn -0.8393 0.5437 -0.0000
vn -0.8539 -0.5204 -0.0000
vn -0.8126 0.5828 -0.0000
vn -0.8111 0.5849 -0.0000
vn -0.8490 0.5283 -0.0000
vn -0.9444 -0.3288 -0.0000
vn -0.8507 0.5256 -0.0000
vn -0.6486 -0.7611 -0.0000
vn -0.8375 0.5465 -0.0000
vn -0.8086 0.5883 -0.0000
vn -0.7587 0.6514 -0.0000
vn -0.8102 0.5861 -0.0000
vn -0.8186 0.5743 -0.0000
vn -0.6829 0.7306 -0.0000
vn -0.0000 -1.0000 -0.0000
vn 0.1173 -0.9931 -0.0000
vn 0.3501 -0.9367 -0.0000
vn 0.5698 -0.8218 -0.0000
vn 0.7117 -0.7025 -0.0000
vn 0.7904 -0.6125 -0.0000
vn -0.5805 0.8143 -0.0000
vn 0.9911 0.1334 -0.0000
vn -0.7931 -0.6091 -0.0000
vn -0.9729 -0.2312 -0.0000
vn -0.9811 0.1934 -0.0000
vn -0.8840 0.4675 -0.0000
vn -0.7030 0.7112 -0.0000
vn -0.4746 0.8802 -0.0000
vn -0.2463 0.9692 -0.0000
vn -0.0450 0.9990 -0.0000
vn 0.1167 -0.9932 -0.0000
vn 0.3215 -0.9469 -0.0000
vn 0.5726 -0.8198 -0.0000
vn 0.8078 -0.5894 -0.0000
vn 0.9506 -0.3104 -0.0000
vn 0.9978 -0.0666 -0.0000
vn 0.9253 0.3792 -0.0000
vn 0.7645 0.6446 -0.0000
vn 0.5182 0.8553 -0.0000
vn 0.2585 0.9660 -0.0000
vn -0.8458 0.5335 -0.0000
vn -0.8282 0.5604 -0.0000
vn -0.9047 -0.4261 -0.0000
vn -0.8528 0.5222 -0.0000
vn 0.0443 0.9990 -0.0000
vn -0.9990 -0.0439 -0.0000
vn -0.8253 0.5647 -0.0000
vn 0.8337 -0.5522 -0.0000
vn -0.8104 0.5859 -0.0000
vn -0.7867 0.6174 -0.0000
vn -0.7239 -0.6899 -0.0000
vn -0.7242 0.6895 -0.0000
vn -0.8230 0.5680 -0.0000
vt 0.010753 0.000000
vt 0.720430 0.000000
vt 0.000000 0.000000
vt 0.709677 0.000000
vt 0.698925 0.000000
vt 0.688172 0.000000
vt 0.677419 0.000000
vt 0.666667 0.000000
vt 0.655914 0.000000
vt 0.645161 0.000000
vt 0.634409 0.000000
vt 0.731183 0.000000
vt 0.623656 0.000000
vt 1.000000 0.000000
vt 0.741935 0.000000
vt 0.752688 0.000000
vt 0.763441 0.000000
vt 0.612903 0.000000
vt 0.774194 0.000000
vt 0.784946 0.000000
vt 0.795699 0.000000
vt 0.602151 0.000000
vt 0.806452 0.000000
vt 0.817204 0.000000
vt 0.827957 0.000000
vt 0.591398 0.000000
vt 0.838710 0.000000
vt 0.849462 0.000000
vt 0.580645 0.000000
vt 0.860215 0.000000
vt 0.870968 0.000000
vt 0.569892 0.000000
vt 0.881720 0.000000
vt 0.559140 0.000000
vt 0.892473 0.000000
vt 0.903226 0.000000
vt 0.548387 0.000000
vt 0.913979 0.000000
vt 0.537634 0.000000
vt 0.924731 0.000000
vt 0.526882 0.000000
vt 0.935484 0.000000
vt 0.946237 0.000000
vt 0.516129 0.000000
vt 0.956989 0.000000
vt 0.967742 0.000000
vt 0.505376 0.000000
vt 0.978495 0.000000
vt 0.989247 0.000000
vt 0.032258 0.000000
vt 0.494624 0.000000
vt 0.483871 0.000000
vt 0.473118 0.000000
vt 0.462366 0.000000
vt 0.451613 0.000000
vt 0.440860 0.000000
vt 0.430108 0.000000
vt 0.043011 0.000000
vt 0.053763 0.000000
vt 0.419355 0.000000
vt 0.021505 0.000000
vt 0.064516 0.000000
vt 0.075269 0.000000
vt 0.086022 0.000000
vt 0.408602 0.000000
vt 0.096774 0.000000
vt 0.107527 0.000000
vt 0.397849 0.000000
vt 0.118280 0.000000
vt 0.387097 0.000000
vt 0.129032 0.000000
vt 0.376344 0.000000
vt 0.139785 0.000000
vt 0.365591 0.000000
vt 0.150538 0.000000
vt 0.354839 0.000000
vt 0.161290 0.000000
vt 0.344086 0.000000
vt 0.333333 0.000000
vt 0.172043 0.000000
vt 0.322581 0.000000
vt 0.182796 0.000000
vt 0.311828 0.000000
vt 0.301075 0.000000
vt 0.290323 0.000000
vt 0.279570 0.000000
vt 0.268817 0.000000
vt 0.258065 0.000000
vt 0.247312 0.000000
vt 0.236559 0.000000
vt 0.225806 0.000000
vt 0.215054 0.000000
vt 0.204301 0.000000
vt 0.193548 0.000000
s 0
usemtl black_mat
f 26/48/27 92/49/27 25/50/27
f 92/49/27 91/51/27 25/50/27
f 92/49/27 90/52/27 91/51/27
f 92/49/27 89/53/27 90/52/27
f 92/49/27 88/54/27 89/53/27
f 92/49/27 87/55/27 88/54/27
f 92/49/27 86/56/27 87/55/27
f 92/49/27 85/57/27 86/56/27
f 92/49/27 84/58/27 85/57/27
f 92/49/27 93/59/27 84/58/27
f 93/59/27 83/60/27 84/58/27
f 26/48/27 118/61/27 92/49/27
f 94/62/27 83/60/27 93/59/27
f 95/63/27 83/60/27 94/62/27
f 96/64/27 83/60/27 95/63/27
f 96/64/27 82/65/27 83/60/27
f 97/66/27 82/65/27 96/64/27
f 98/67/27 82/65/27 97/66/27
f 99/68/27 82/65/27 98/67/27
f 99/68/27 81/69/27 82/65/27
f 100/70/27 81/69/27 99/68/27
f 101/71/27 81/69/27 100/70/27
f 102/72/27 81/69/27 101/71/27
f 102/72/27 80/73/27 81/69/27
f 103/74/27 80/73/27 102/72/27
f 104/75/27 80/73/27 103/74/27
f 104/75/27 79/76/27 80/73/27
f 105/77/27 79/76/27 104/75/27
f 106/78/27 79/76/27 105/77/27
f 106/78/27 78/79/27 79/76/27
f 107/80/27 78/79/27 106/78/27
f 107/80/27 77/81/27 78/79/27
f 108/82/27 77/81/27 107/80/27
f 109/83/27 77/81/27 108/82/27
f 109/83/27 76/84/27 77/81/27
f 110/85/27 76/84/27 109/83/27
f 110/85/27 75/86/27 76/84/27
f 111/87/27 75/86/27 110/85/27
f 111/87/27 74/88/27 75/86/27
f 112/89/27 74/88/27 111/87/27
f 113/90/27 74/88/27 112/89/27
f 113/90/27 73/91/27 74/88/27
f 114/92/27 73/91/27 113/90/27
f 115/93/27 73/91/27 114/92/27
f 115/93/27 72/94/27 73/91/27
f 116/95/27 72/94/27 115/93/27
f 117/96/27 72/94/27 116/95/27
f 26/48/27 28/97/27 118/61/27
f 28/97/27 117/96/27 118/61/27
f 28/97/27 72/94/27 117/96/27
f 28/97/27 71/98/27 72/94/27
f 28/97/27 70/99/27 71/98/27
f 28/97/27 69/100/27 70/99/27
f 28/97/27 68/101/27 69/100/27
f 28/97/27 67/102/27 68/101/27
f 28/97/27 66/103/27 67/102/27
f 28/97/27 65/104/27 66/103/27
f 28/97/27 29/105/27 65/104/27
f 29/105/27 30/106/27 65/104/27
f 30/106/27 64/107/27 65/104/27
f 26/48/27 27/108/27 28/97/27
f 31/109/27 64/107/27 30/106/27
f 32/110/27 64/107/27 31/109/27
f 33/111/27 64/107/27 32/110/27
f 33/111/27 63/112/27 64/107/27
f 34/113/27 63/112/27 33/111/27
f 35/114/27 63/112/27 34/113/27
f 35/114/27 62/115/27 63/112/27
f 36/116/27 62/115/27 35/114/27
f 36/116/27 61/117/27 62/115/27
f 37/118/27 61/117/27 36/116/27
f 37/118/27 60/119/27 61/117/27
f 38/120/27 60/119/27 37/118/27
f 38/120/27 59/121/27 60/119/27
f 39/122/27 59/121/27 38/120/27
f 39/122/27 58/123/27 59/121/27
f 40/124/27 58/123/27 39/122/27
f 40/124/27 57/125/27 58/123/27
f 40/124/27 56/126/27 57/125/27
f 41/127/27 56/126/27 40/124/27
f 41/127/27 55/128/27 56/126/27
f 42/129/27 55/128/27 41/127/27
f 42/129/27 54/130/27 55/128/27
f 42/129/27 53/131/27 54/130/27
f 42/129/27 52/132/27 53/131/27
f 42/129/27 51/133/27 52/132/27
f 42/129/27 50/134/27 51/133/27
f 42/129/27 49/135/27 50/134/27
f 42/129/27 48/136/27 49/135/27
f 42/129/27 47/137/27 48/136/27
f 42/129/27 46/138/27 47/137/27
f 42/129/27 45/139/27 46/138/27
f 42/129/27 44/140/27 45/139/27
f 42/129/27 43/141/27 44/140/27
f 120/48/28 119/50/28 186/49/28
f 186/49/28 119/50/28 185/51/28
f 186/49/28 185/51/28 184/52/28
f 186/49/28 184/52/28 183/53/28
f 186/49/28 183/53/28 182/54/28
f 186/49/28 182/54/28 181/55/28
f 186/49/28 181/55/28 180/56/28
f 186/49/28 180/56/28 179/57/28
f 186/49/28 179/57/28 178/58/28
f 186/49/28 178/58/28 187/59/28
f 187/59/28 178/58/28 177/60/28
f 120/48/28 186/49/28 212/61/28
f 188/62/28 187/59/28 177/60/28
f 189/63/28 188/62/28 177/60/28
f 190/64/28 189/63/28 177/60/28
f 190/64/28 177/60/28 176/65/28
f 191/66/28 190/64/28 176/65/28
f 192/67/28 191/66/28 176/65/28
f 193/68/28 192/67/28 176/65/28
f 193/68/28 176/65/28 175/69/28
f 194/70/28 193/68/28 175/69/28
f 195/71/28 194/70/28 175/69/28
f 196/72/28 195/71/28 175/69/28
f 196/72/28 175/69/28 174/73/28
f 197/74/28 196/72/28 174/73/28
f 198/75/28 197/74/28 174/73/28
f 198/75/28 174/73/28 173/76/28
f 199/77/28 198/75/28 173/76/28
f 200/78/28 199/77/28 173/76/28
f 200/78/28 173/76/28 172/79/28
f 201/80/28 200/78/28 172/79/28
f 201/80/28 172/79/28 171/81/28
f 202/82/28 201/80/28 171/81/28
f 203/83/28 202/82/28 171/81/28
f 203/83/28 171/81/28 170/84/28
f 204/85/28 203/83/28 170/84/28
f 204/85/28 170/84/28 169/86/28
f 205/87/28 204/85/28 169/86/28
f 205/87/28 169/86/28 168/88/28
f 206/89/28 205/87/28 168/88/28
f 207/90/28 206/89/28 168/88/28
f 207/90/28 168/88/28 167/91/28
f 208/92/28 207/90/28 167/91/28
f 209/93/28 208/92/28 167/91/28
f 209/93/28 167/91/28 166/94/28
f 210/95/28 209/93/28 166/94/28
f 211/96/28 210/95/28 166/94/28
f 120/48/28 212/61/28 122/97/28
f 122/97/28 212/61/28 211/96/28
f 122/97/28 211/96/28 166/94/28
f 122/97/28 166/94/28 165/98/28
f 122/97/28 165/98/28 164/99/28
f 122/97/28 164/99/28 163/100/28
f 122/97/28 163/100/28 162/101/28
f 122/97/28 162/101/28 161/102/28
f 122/97/28 161/102/28 160/103/28
f 122/97/28 160/103/28 159/104/28
f 122/97/28 159/104/28 123/105/28
f 123/105/28 159/104/28 124/106/28
f 124/106/28 159/104/28 158/107/28
f 120/48/28 122/97/28 121/108/28
f 125/109/28 124/106/28 158/107/28
f 126/110/28 125/109/28 158/107/28
f 127/111/28 126/110/28 158/107/28
f 127/111/28 158/107/28 157/112/28
f 128/113/28 127/111/28 157/112/28
f 129/114/28 128/113/28 157/112/28
f 129/114/28 157/112/28 156/115/28
f 130/116/28 129/114/28 156/115/28
f 130/116/28 156/115/28 155/117/28
f 131/118/28 130/116/28 155/117/28
f 131/118/28 155/117/28 154/119/28
f 132/120/28 131/118/28 154/119/28
f 132/120/28 154/119/28 153/121/28
f 133/122/28 132/120/28 153/121/28
f 133/122/28 153/121/28 152/123/28
f 134/124/28 133/122/28 152/123/28
f 134/124/28 152/123/28 151/125/28
f 134/124/28 151/125/28 150/126/28
f 135/127/28 134/124/28 150/126/28
f 135/127/28 150/126/28 149/128/28
f 136/129/28 135/127/28 149/128/28
f 136/129/28 149/128/28 148/130/28
f 136/129/28 148/130/28 147/131/28
f 136/129/28 147/131/28 146/132/28
f 136/129/28 146/132/28 145/133/28
f 136/129/28 145/133/28 144/134/28
f 136/129/28 144/134/28 143/135/28
f 136/129/28 143/135/28 142/136/28
f 136/129/28 142/136/28 141/137/28
f 136/129/28 141/137/28 140/138/28
f 136/129/28 140/138/28 139/139/28
f 136/129/28 139/139/28 138/140/28
f 136/129/28 138/140/28 137/141/28
f 26/48/29 25/50/29 119/50/29 120/48/29
f 28/97/30 27/108/30 121/108/30 122/97/30
f 30/106/31 29/105/31 123/105/31 124/106/31
f 32/110/32 31/109/32 125/109/32 126/110/32
f 34/113/33 33/111/33 127/111/33 128/113/33
f 36/116/34 35/114/34 129/114/34 130/116/34
f 38/120/35 37/118/35 131/118/35 132/120/35
f 40/124/36 39/122/36 133/122/36 134/124/36
f 42/129/37 41/127/37 135/127/37 136/129/37
f 48/136/38 47/137/38 141/137/38 142/136/38
f 69/100/39 68/101/39 162/101/39 163/100/39
f 52/132/40 51/133/40 145/133/40 146/132/40
f 54/130/41 53/131/41 147/131/41 148/130/41
f 66/103/42 65/104/42 159/104/42 160/103/42
f 68/101/43 67/102/43 161/102/43 162/101/43
f 70/99/44 69/100/44 163/100/44 164/99/44
f 78/79/45 77/81/45 171/81/45 172/79/45
f 80/73/46 79/76/46 173/76/46 174/73/46
f 82/65/47 81/69/47 175/69/47 176/65/47
f 84/58/48 83/60/48 177/60/48 178/58/48
f 86/56/49 85/57/49 179/57/49 180/56/49
f 88/54/50 87/55/50 181/55/50 182/54/50
f 90/52/51 89/53/51 183/53/51 184/52/51
f 25/50/52 91/51/52 185/51/52 119/50/52
f 94/62/53 93/59/53 187/59/53 188/62/53
f 96/64/54 95/63/54 189/63/54 190/64/54
f 98/67/55 97/66/55 191/66/55 192/67/55
f 100/70/56 99/68/56 193/68/56 194/70/56
f 102/72/57 101/71/57 195/71/57 196/72/57
f 104/75/58 103/74/58 197/74/58 198/75/58
f 106/78/59 105/77/59 199/77/59 200/78/59
f 108/82/60 107/80/60 201/80/60 202/82/60
f 110/85/61 109/83/61 203/83/61 204/85/61
f 112/89/62 111/87/62 205/87/62 206/89/62
f 114/92/63 113/90/63 207/90/63 208/92/63
f 116/95/64 115/93/64 209/93/64 210/95/64
f 118/61/52 117/96/52 211/96/52 212/61/52
f 53/131/65 52/132/65 146/132/65 147/131/65
f 74/88/66 73/91/66 167/91/66 168/88/66
f 47/137/67 46/138/67 140/138/67 141/137/67
f 46/138/68 45/139/68 139/139/68 140/138/68
f 55/128/69 54/130/69 148/130/69 149/128/69
f 76/84/70 75/86/70 169/86/70 170/84/70
f 57/125/71 56/126/71 150/126/71 151/125/71
f 71/98/72 70/99/72 164/99/72 165/98/72
f 59/121/73 58/123/73 152/123/73 153/121/73
f 61/117/74 60/119/74 154/119/74 155/117/74
f 63/112/75 62/115/75 156/115/75 157/112/75
f 92/49/30 118/61/30 212/61/30 186/49/30
f 44/140/76 43/141/76 137/141/76 138/140/76
f 49/135/77 48/136/77 142/136/77 143/135/77
f 65/104/78 64/107/78 158/107/78 159/104/78
f 29/105/79 28/97/79 122/97/79 123/105/79
f 31/109/80 30/106/80 124/106/80 125/109/80
f 33/111/81 32/110/81 126/110/81 127/111/81
f 35/114/82 34/113/82 128/113/82 129/114/82
f 37/118/83 36/116/83 130/116/83 131/118/83
f 39/122/84 38/120/84 132/120/84 133/122/84
f 43/141/79 42/129/79 136/129/79 137/141/79
f 27/108/79 26/48/79 120/48/79 121/108/79
f 67/102/85 66/103/85 160/103/85 161/102/85
f 107/80/86 106/78/86 200/78/86 201/80/86
f 73/91/87 72/94/87 166/94/87 167/91/87
f 77/81/88 76/84/88 170/84/88 171/81/88
f 81/69/89 80/73/89 174/73/89 175/69/89
f 83/60/90 82/65/90 176/65/90 177/60/90
f 85/57/91 84/58/91 178/58/91 179/57/91
f 87/55/92 86/56/92 180/56/92 181/55/92
f 89/53/93 88/54/93 182/54/93 183/53/93
f 91/51/94 90/52/94 184/52/94 185/51/94
f 93/59/79 92/49/79 186/49/79 187/59/79
f 95/63/95 94/62/95 188/62/95 189/63/95
f 97/66/96 96/64/96 190/64/96 191/66/96
f 99/68/97 98/67/97 192/67/97 193/68/97
f 101/71/98 100/70/98 194/70/98 195/71/98
f 103/74/99 102/72/99 196/72/99 197/74/99
f 105/77/100 104/75/100 198/75/100 199/77/100
f 109/83/101 108/82/101 202/82/101 203/83/101
f 111/87/102 110/85/102 204/85/102 205/87/102
f 113/90/103 112/89/103 206/89/103 207/90/103
f 115/93/104 114/92/104 208/92/104 209/93/104
f 58/123/105 57/125/105 151/125/105 152/123/105
f 51/133/106 50/134/106 144/134/106 145/133/106
f 75/86/107 74/88/107 168/88/107 169/86/107
f 56/126/108 55/128/108 149/128/108 150/126/108
f 117/96/109 116/95/109 210/95/109 211/96/109
f 79/76/110 78/79/110 172/79/110 173/76/110
f 60/119/111 59/121/111 153/121/111 154/119/111
f 41/127/112 40/124/112 134/124/112 135/127/112
f 45/139/113 44/140/113 138/140/113 139/139/113
f 62/115/114 61/117/114 155/117/114 156/115/114
f 72/94/115 71/98/115 165/98/115 166/94/115
f 64/107/116 63/112/116 157/112/116 158/107/116
f 50/134/117 49/135/117 143/135/117 144/134/117
