# Blender v3.2.1 OBJ File: ''
# www.blender.org
mtllib cable_section.mtl
o cable_section.geo_Plane.001
v 0.050000 -0.000000 -0.250000
v -0.050000 -0.000000 -0.250000
v 0.050000 0.020000 -0.250000
v -0.025000 -0.000000 -0.250000
v 0.025000 -0.000000 -0.250000
v -0.025000 0.020000 -0.250000
v -0.050000 0.020000 -0.250000
v 0.025000 0.020000 -0.250000
v 0.050000 0.000000 0.250000
v -0.050000 0.000000 0.250000
v 0.050000 0.020000 0.250000
v -0.050000 0.020000 0.250000
v -0.025000 0.000000 0.250000
v 0.025000 0.000000 0.250000
v -0.025000 0.020000 0.250000
v 0.025000 0.020000 0.250000
vt 0.250000 0.000000
vt 0.750000 0.000000
vt 0.750000 0.500000
vt 0.250000 0.500000
vt 0.750000 0.500000
vt 1.000000 0.500000
vt 0.000000 0.000000
vt 0.000000 0.000000
vt 0.000000 0.000000
vt 0.000000 0.000000
vt 0.000000 0.000000
vt 0.000000 0.000000
vt 0.000000 0.000000
vt 0.750000 0.000000
vt 0.000000 0.000000
vt 0.000000 0.000000
vt 0.000000 0.000000
vt 0.000000 0.000000
vt 0.250000 0.500000
vt 0.250000 0.000000
vt 0.000000 0.500000
vt 1.000000 0.000000
vt 0.000000 0.000000
vn 0.0000 1.0000 -0.0000
vn 0.0000 0.0000 1.0000
vn 0.0000 0.0000 -1.0000
vn 1.0000 0.0000 0.0000
vn -1.0000 0.0000 0.0000
usemtl white
s off
f 5/1/1 4/2/1 13/3/1 14/4/1
usemtl black
f 13/3/2 15/5/2 12/6/2 10/7/2
f 1/8/3 5/9/3 8/10/3 3/11/3
f 9/12/4 1/8/4 3/11/4 11/13/4
f 13/3/4 4/2/4 6/14/4 15/5/4
f 4/15/3 2/16/3 7/17/3 6/18/3
f 5/1/5 14/4/5 16/19/5 8/20/5
f 9/12/2 11/13/2 16/19/2 14/4/2
f 3/11/1 8/20/1 16/19/1 11/21/1
f 6/14/1 7/22/1 12/6/1 15/5/1
f 2/16/5 10/7/5 12/23/5 7/17/5
