# Blender 4.0.1
# www.blender.org
mtllib robot_parts_nut.mtl
o nut_geo
v 0.004330 0.097693 0.020000
v -0.004330 0.097693 0.020000
v 0.000000 0.094420 0.025000
v 0.004330 0.097693 -0.020000
v 0.000000 0.094420 -0.025000
v -0.004330 0.097693 -0.020000
v -0.082272 0.052693 0.020000
v -0.086603 0.045193 0.020000
v -0.081603 0.047306 0.025000
v -0.082272 0.052693 -0.020000
v -0.081603 0.047306 -0.025000
v -0.086603 0.045193 -0.020000
v -0.086603 -0.044807 0.020000
v -0.082272 -0.052307 0.020000
v -0.081603 -0.046920 0.025000
v -0.086603 -0.044807 -0.020000
v -0.081603 -0.046920 -0.025000
v -0.082272 -0.052307 -0.020000
v -0.004330 -0.097307 0.020000
v 0.004330 -0.097307 0.020000
v 0.000000 -0.094033 0.025000
v 0.000000 -0.094033 -0.025000
v 0.004330 -0.097307 -0.020000
v -0.004330 -0.097307 -0.020000
v 0.082272 -0.052307 0.020000
v 0.086603 -0.044807 0.020000
v 0.081603 -0.046920 0.025000
v 0.081603 -0.046920 -0.025000
v 0.086603 -0.044807 -0.020000
v 0.082272 -0.052307 -0.020000
v 0.086603 0.045193 0.020000
v 0.082272 0.052693 0.020000
v 0.081603 0.047306 0.025000
v 0.082272 0.052693 -0.020000
v 0.086603 0.045193 -0.020000
v 0.081603 0.047306 -0.025000
v -0.023533 0.057007 -0.025000
v -0.021611 0.052366 -0.020000
v -0.043484 0.043677 -0.025000
v -0.039931 0.040124 -0.020000
v -0.034165 0.051325 -0.025000
v -0.031374 0.047147 -0.020000
v -0.056814 0.023726 -0.025000
v -0.052173 0.021804 -0.020000
v -0.061495 0.000193 -0.025000
v -0.056471 0.000193 -0.020000
v -0.055386 0.011210 -0.020000
v -0.060314 0.012190 -0.025000
v -0.051132 0.034358 -0.025000
v -0.046954 0.031567 -0.020000
v 0.061495 0.000193 -0.025000
v 0.056471 0.000193 -0.020000
v 0.055386 0.011210 -0.020000
v 0.060314 0.012190 -0.025000
v 0.052173 0.021804 -0.020000
v 0.056814 0.023726 -0.025000
v 0.043484 0.043677 -0.025000
v 0.039931 0.040124 -0.020000
v 0.046954 0.031567 -0.020000
v 0.051132 0.034358 -0.025000
v 0.023533 0.057007 -0.025000
v 0.021611 0.052366 -0.020000
v 0.034165 0.051325 -0.025000
v 0.031374 0.047147 -0.020000
v 0.034165 -0.050938 -0.025000
v 0.031374 -0.046761 -0.020000
v 0.011997 -0.060121 -0.025000
v 0.011017 -0.055193 -0.020000
v 0.023533 -0.056621 -0.025000
v 0.021611 -0.051979 -0.020000
v -0.011997 -0.060121 -0.025000
v -0.011017 -0.055193 -0.020000
v -0.034165 -0.050938 -0.025000
v -0.031374 -0.046761 -0.020000
v -0.021611 -0.051979 -0.020000
v -0.023533 -0.056621 -0.025000
v 0.000000 -0.061302 -0.025000
v 0.000000 -0.056278 -0.020000
v 0.060314 -0.011804 -0.025000
v 0.055386 -0.010824 -0.020000
v 0.051132 -0.033972 -0.025000
v 0.046954 -0.031181 -0.020000
v 0.056814 -0.023340 -0.025000
v 0.052173 -0.021417 -0.020000
v 0.011997 0.060507 -0.025000
v 0.011017 0.055579 -0.020000
v 0.043484 -0.043291 -0.025000
v 0.039931 -0.039738 -0.020000
v -0.011997 0.060507 -0.025000
v -0.011017 0.055579 -0.020000
v -0.039931 -0.039738 -0.020000
v -0.043484 -0.043291 -0.025000
v -0.052173 -0.021417 -0.020000
v -0.056814 -0.023340 -0.025000
v -0.060314 -0.011804 -0.025000
v -0.055386 -0.010824 -0.020000
v -0.051132 -0.033972 -0.025000
v -0.046954 -0.031181 -0.020000
v 0.000000 0.061689 -0.025000
v 0.000000 0.056664 -0.020000
v 0.034165 0.051325 0.025000
v 0.031374 0.047147 0.020000
v 0.011997 0.060507 0.025000
v 0.011017 0.055579 0.020000
v 0.023533 0.057007 0.025000
v 0.021611 0.052366 0.020000
v -0.011997 0.060507 0.025000
v -0.011017 0.055579 0.020000
v -0.034165 0.051325 0.025000
v -0.031374 0.047147 0.020000
v -0.023533 0.057007 0.025000
v -0.021611 0.052366 0.020000
v 0.000000 0.056664 0.020000
v 0.000000 0.061689 0.025000
v -0.023533 -0.056621 0.025000
v -0.021611 -0.051979 0.020000
v -0.043484 -0.043291 0.025000
v -0.039931 -0.039738 0.020000
v -0.031374 -0.046761 0.020000
v -0.034165 -0.050938 0.025000
v -0.056814 -0.023340 0.025000
v -0.052173 -0.021417 0.020000
v -0.061495 0.000193 0.025000
v -0.056471 0.000193 0.020000
v -0.060314 -0.011804 0.025000
v -0.055386 -0.010824 0.020000
v -0.051132 -0.033972 0.025000
v -0.046954 -0.031181 0.020000
v 0.061495 0.000193 0.025000
v 0.056471 0.000193 0.020000
v 0.055386 -0.010824 0.020000
v 0.060314 -0.011804 0.025000
v 0.056814 -0.023340 0.025000
v 0.052173 -0.021417 0.020000
v 0.043484 -0.043291 0.025000
v 0.039931 -0.039738 0.020000
v 0.051132 -0.033972 0.025000
v 0.046954 -0.031181 0.020000
v 0.023533 -0.056621 0.025000
v 0.021611 -0.051979 0.020000
v 0.034165 -0.050938 0.025000
v 0.031374 -0.046761 0.020000
v 0.060314 0.012190 0.025000
v 0.055386 0.011210 0.020000
v 0.051132 0.034358 0.025000
v 0.046954 0.031567 0.020000
v 0.052173 0.021804 0.020000
v 0.056814 0.023726 0.025000
v 0.011017 -0.055193 0.020000
v 0.011997 -0.060121 0.025000
v 0.039931 0.040124 0.020000
v 0.043484 0.043677 0.025000
v -0.011997 -0.060121 0.025000
v -0.011017 -0.055193 0.020000
v -0.051132 0.034358 0.025000
v -0.046954 0.031567 0.020000
v -0.055386 0.011210 0.020000
v -0.060314 0.012190 0.025000
v -0.052173 0.021804 0.020000
v -0.056814 0.023726 0.025000
v -0.043484 0.043677 0.025000
v -0.039931 0.040124 0.020000
v 0.000000 -0.056278 0.020000
v 0.000000 -0.061302 0.025000
vn -0.0000 -0.0000 1.0000
vn -0.5000 -0.8660 -0.0000
vn 0.5000 -0.8660 -0.0000
vn 1.0000 -0.0000 -0.0000
vn -0.0000 -0.0000 -1.0000
vn -1.0000 -0.0000 -0.0000
vn 0.4714 -0.8819 -0.0000
vn -0.5000 0.8660 -0.0000
vn 0.7730 0.6344 -0.0000
vn 0.7730 -0.6344 -0.0000
vn 0.2903 -0.9569 -0.0000
vn 0.9569 -0.2903 -0.0000
vn 0.6344 -0.7730 -0.0000
vn 0.9952 0.0980 -0.0000
vn 0.8819 -0.4714 -0.0000
vn -0.9952 -0.0980 -0.0000
vn 0.9952 -0.0980 -0.0000
vn 0.8819 0.4714 -0.0000
vn 0.9569 0.2903 -0.0000
vn -0.9569 0.2903 -0.0000
vn 0.6344 0.7730 -0.0000
vn 0.4714 0.8819 -0.0000
vn 0.2903 0.9569 -0.0000
vn 0.0980 0.9952 -0.0000
vn -0.0980 0.9952 -0.0000
vn -0.2903 0.9569 -0.0000
vn -0.4714 0.8819 -0.0000
vn -0.0980 -0.9952 -0.0000
vn -0.7730 0.6344 -0.0000
vn -0.8819 0.4714 -0.0000
vn -0.9569 -0.2903 -0.0000
vn -0.9952 0.0980 -0.0000
vn -0.8819 -0.4714 -0.0000
vn -0.6344 -0.7730 -0.0000
vn -0.4714 -0.8819 -0.0000
vn -0.7730 -0.6344 -0.0000
vn -0.2903 -0.9569 -0.0000
vn -0.6344 0.7730 -0.0000
vn 0.0980 -0.9952 -0.0000
vn -0.0000 0.8366 0.5478
vn -0.0000 0.8366 -0.5478
vn -0.7246 0.4183 0.5477
vn -0.7246 0.4183 -0.5477
vn -0.7246 -0.4183 0.5477
vn -0.7246 -0.4183 -0.5477
vn -0.0000 -0.8366 0.5478
vn -0.0000 -0.8366 -0.5478
vn 0.7246 -0.4183 0.5477
vn 0.7246 -0.4183 -0.5477
vn 0.7246 0.4183 0.5477
vn 0.7246 0.4183 -0.5477
vn -0.0000 1.0000 -0.0000
vn -0.3536 0.6124 0.7071
vn -0.3536 0.6124 -0.7071
vn -0.7071 -0.0000 0.7071
vn -0.7071 -0.0000 -0.7071
vn -0.3536 -0.6124 0.7071
vn -0.3536 -0.6124 -0.7071
vn 0.3536 -0.6124 0.7071
vn 0.3536 -0.6124 -0.7071
vn 0.7071 -0.0000 0.7071
vn 0.3536 0.6124 -0.7071
vn 0.5466 0.4486 -0.7071
vn 0.3333 -0.6236 -0.7071
vn 0.6767 0.2053 -0.7071
vn 0.6767 -0.2053 -0.7071
vn 0.5466 -0.4486 -0.7071
vn -0.7037 -0.0693 -0.7071
vn -0.6767 -0.2053 -0.7071
vn -0.6236 -0.3333 -0.7071
vn -0.6236 0.3333 0.7071
vn -0.4486 -0.5466 -0.7071
vn -0.2053 0.6767 -0.7071
vn 0.3333 0.6236 -0.7071
vn -0.8660 0.5000 -0.0000
vn -0.7037 0.0693 -0.7071
vn -0.6236 0.3333 -0.7071
vn -0.5466 -0.4486 -0.7071
vn -0.4486 0.5466 -0.7071
vn 0.2053 -0.6767 -0.7071
vn 0.4486 0.5466 -0.7071
vn 0.7037 0.0693 -0.7071
vn 0.6236 0.3333 -0.7071
vn -0.2053 -0.6767 0.7071
vn 0.3333 -0.6236 0.7071
vn 0.0693 -0.7037 0.7071
vn 0.3536 0.6124 0.7071
vn 0.3333 0.6236 0.7071
vn 0.0693 -0.7037 -0.7071
vn 0.6767 0.2053 0.7071
vn 0.5466 0.4486 0.7071
vn -0.8660 -0.5000 -0.0000
vn -0.7037 0.0693 0.7071
vn -0.6767 0.2053 0.7071
vn -0.3333 -0.6236 -0.7071
vn -0.4486 0.5466 0.7071
vn -0.7037 -0.0693 0.7071
vn -0.6236 -0.3333 0.7071
vn -0.2053 0.6767 0.7071
vn -0.4486 -0.5466 0.7071
vn 0.2053 0.6767 0.7071
vn 0.7037 -0.0693 0.7071
vn 0.6767 -0.2053 0.7071
vn 0.5466 -0.4486 0.7071
vn -0.0000 -1.0000 -0.0000
vn -0.6767 -0.2053 0.7071
vn -0.3333 0.6236 -0.7071
vn -0.0693 -0.7037 0.7071
vn -0.3333 0.6236 0.7071
vn -0.5466 -0.4486 0.7071
vn 0.8660 -0.5000 -0.0000
vn 0.2053 -0.6767 0.7071
vn -0.3333 -0.6236 0.7071
vn -0.2053 -0.6767 -0.7071
vn -0.0693 0.7037 -0.7071
vn 0.7071 -0.0000 -0.7071
vn 0.2053 0.6767 -0.7071
vn 0.8660 0.5000 -0.0000
vn 0.0693 0.7037 -0.7071
vn -0.0693 0.7037 0.7071
vn 0.6236 -0.3333 0.7071
vn 0.0693 0.7037 0.7071
vn 0.4486 0.5466 0.7071
vn 0.4486 -0.5466 -0.7071
vn -0.5466 0.4486 0.7071
vn -0.6767 0.2053 -0.7071
vn -0.5466 0.4486 -0.7071
vn 0.6236 0.3333 0.7071
vn 0.7037 0.0693 0.7071
vn 0.6236 -0.3333 -0.7071
vn 0.7037 -0.0693 -0.7071
vn 0.4486 -0.5466 0.7071
vn -0.0693 -0.7037 -0.7071
vn 0.5000 0.8660 -0.0000
vt 0.750000 0.412285
vt 0.750000 0.478347
vt 0.946450 0.363546
vt 0.946450 0.136454
vt 0.750000 0.021653
vt 0.750000 0.087715
vt 0.780654 0.091654
vt 0.810866 0.101122
vt 0.838726 0.116110
vt 0.863195 0.136113
vt 0.883302 0.160488
vt 0.898179 0.188358
vt 0.907253 0.218597
vt 0.910293 0.250000
vt 0.907253 0.281403
vt 0.898179 0.311642
vt 0.883302 0.339512
vt 0.863195 0.363887
vt 0.838726 0.383890
vt 0.810866 0.398878
vt 0.780654 0.408346
vt 0.658333 0.550000
vt 0.658333 0.950000
vt 0.508333 0.950000
vt 0.508333 0.550000
vt 0.491667 0.550000
vt 0.491667 0.950000
vt 0.341667 0.950000
vt 0.341667 0.550000
vt 0.325000 0.550000
vt 0.325000 0.950000
vt 0.175000 0.950000
vt 0.175000 0.550000
vt 0.250000 0.412285
vt 0.250000 0.478347
vt 0.053550 0.363546
vt 0.053550 0.136454
vt 0.250000 0.021653
vt 0.250000 0.087715
vt 0.219346 0.091654
vt 0.189134 0.101122
vt 0.161274 0.116110
vt 0.136805 0.136113
vt 0.116698 0.160488
vt 0.101821 0.188358
vt 0.092746 0.218597
vt 0.089707 0.250000
vt 0.092746 0.281403
vt 0.101821 0.311642
vt 0.116698 0.339512
vt 0.136805 0.363887
vt 0.161274 0.383890
vt 0.189134 0.398878
vt 0.219346 0.408346
vt 0.825000 0.550000
vt 0.825000 0.950000
vt 0.675000 0.950000
vt 0.675000 0.550000
vt 0.906250 0.762500
vt 0.906250 0.862500
vt 0.937500 0.862500
vt 0.937500 0.762500
vt 0.553550 0.136454
vt 0.553550 0.363546
vt 0.719346 0.408346
vt 0.689134 0.398878
vt 0.661274 0.383890
vt 0.636805 0.363887
vt 0.616698 0.339512
vt 0.601821 0.311642
vt 0.592746 0.281403
vt 0.589707 0.250000
vt 0.592746 0.218597
vt 0.601821 0.188358
vt 0.616698 0.160488
vt 0.636805 0.136113
vt 0.661274 0.116110
vt 0.689134 0.101122
vt 0.719346 0.091654
vt 0.446450 0.136454
vt 0.446450 0.363546
vt 0.280654 0.408346
vt 0.310866 0.398878
vt 0.338726 0.383890
vt 0.363195 0.363887
vt 0.383302 0.339512
vt 0.398179 0.311642
vt 0.407253 0.281403
vt 0.410293 0.250000
vt 0.407253 0.218597
vt 0.398179 0.188358
vt 0.383302 0.160488
vt 0.363195 0.136113
vt 0.338726 0.116110
vt 0.310866 0.101122
vt 0.280654 0.091654
vt 0.991667 0.550000
vt 0.991667 0.950000
vt 0.841667 0.950000
vt 0.841667 0.550000
vt 0.625000 0.862500
vt 0.656250 0.862500
vt 0.656250 0.762500
vt 0.625000 0.762500
vt 0.843750 0.862500
vt 0.875000 0.862500
vt 0.875000 0.762500
vt 0.843750 0.762500
vt 0.968750 0.862500
vt 0.968750 0.762500
vt 0.781250 0.862500
vt 0.812500 0.862500
vt 0.812500 0.762500
vt 0.781250 0.762500
vt 0.718750 0.862500
vt 0.750000 0.862500
vt 0.750000 0.762500
vt 0.718750 0.762500
vt 0.218750 0.762500
vt 0.218750 0.862500
vt 0.250000 0.862500
vt 0.250000 0.762500
vt 0.687500 0.862500
vt 0.687500 0.762500
vt 0.281250 0.762500
vt 0.281250 0.862500
vt 0.312500 0.862500
vt 0.312500 0.762500
vt 0.593750 0.862500
vt 0.593750 0.762500
vt 0.562500 0.862500
vt 0.562500 0.762500
vt 0.531250 0.862500
vt 0.531250 0.762500
vt 0.500000 0.862500
vt 0.500000 0.762500
vt 0.468750 0.862500
vt 0.468750 0.762500
vt 0.437500 0.862500
vt 0.437500 0.762500
vt 0.406250 0.862500
vt 0.406250 0.762500
vt 0.000000 0.762500
vt 0.000000 0.862500
vt 0.031250 0.862500
vt 0.031250 0.762500
vt 0.343750 0.762500
vt 0.343750 0.862500
vt 0.375000 0.862500
vt 0.375000 0.762500
vt 0.187500 0.762500
vt 0.187500 0.862500
vt 0.156250 0.762500
vt 0.156250 0.862500
vt 0.093750 0.762500
vt 0.093750 0.862500
vt 0.125000 0.862500
vt 0.125000 0.762500
vt 0.062500 0.762500
vt 0.062500 0.862500
vt 1.000000 0.862500
vt 1.000000 0.762500
vt 0.008333 0.550000
vt -0.000000 0.550000
vt 0.004811 0.500000
vt 0.008333 0.950000
vt 0.004811 1.000000
vt -0.000000 0.950000
vt 0.833333 0.550000
vt 0.828522 0.500000
vt 0.838145 1.000000
vt 0.833333 0.950000
vt 0.666667 0.550000
vt 0.661855 0.500000
vt 0.671478 1.000000
vt 0.666667 0.950000
vt 0.500000 0.550000
vt 0.495189 0.500000
vt 0.495189 1.000000
vt 0.500000 0.950000
vt 0.333333 0.550000
vt 0.338145 0.500000
vt 0.328522 1.000000
vt 0.333333 0.950000
vt 0.166667 0.550000
vt 0.171478 0.500000
vt 0.166667 0.950000
vt 0.171478 1.000000
vt 0.838145 0.500000
vt 0.995189 0.500000
vt 0.995189 1.000000
vt 0.671478 0.500000
vt 0.828522 1.000000
vt 0.504811 0.500000
vt 0.661855 1.000000
vt 0.504811 1.000000
vt 0.338145 1.000000
vt 0.328522 0.500000
vt 0.158333 0.950000
vt 0.161855 1.000000
vt 0.004811 1.000000
vt 0.376504 0.165473
vt 0.357583 0.142417
vt 0.308223 0.390564
vt 0.334527 0.376504
vt 0.399222 0.220318
vt 0.390564 0.191777
vt 0.390564 0.308223
vt 0.399222 0.279682
vt 0.357583 0.357583
vt 0.376504 0.334527
vt 0.097855 0.250000
vt 0.100778 0.279682
vt 0.109436 0.308223
vt 0.123496 0.334527
vt 0.609436 0.191777
vt 0.623496 0.165473
vt 0.142417 0.357583
vt 0.165473 0.376504
vt 0.220318 0.100778
vt 0.191777 0.109436
vt 0.334527 0.123496
vt 0.308223 0.109436
vt 0.100778 0.220318
vt 0.123496 0.165473
vt 0.109436 0.191777
vt 0.165473 0.123496
vt 0.142417 0.142417
vt 0.279682 0.399222
vt 0.402145 0.250000
vt 0.720318 0.399222
vt 0.691777 0.390564
vt 0.834527 0.376504
vt 0.808223 0.390564
vt 0.779682 0.399222
vt 0.750000 0.402145
vt 0.161855 0.500000
vt 0.158333 0.550000
vt 0.808223 0.109436
vt 0.834527 0.123496
vt 0.250000 0.402145
vt 0.890563 0.191777
vt 0.899222 0.220318
vt 0.857583 0.142417
vt 0.876504 0.165473
vt 0.597855 0.250000
vt 0.600778 0.220318
vt 0.191777 0.390564
vt 0.642417 0.142417
vt 0.665473 0.123496
vt 0.600778 0.279682
vt 0.623496 0.334527
vt 0.609436 0.308223
vt 0.691777 0.109436
vt 0.720318 0.100778
vt 0.665473 0.376504
vt 0.642417 0.357583
vt 0.779682 0.100778
vt 0.902145 0.250000
vt 0.899221 0.279682
vt 0.890564 0.308223
vt 0.876504 0.334527
vt 0.857583 0.357583
vt 0.220318 0.399222
vt 0.250000 0.097855
vt 0.279682 0.100778
vt 0.750000 0.097855
s 0
f 114/1/1 3/2/1 9/3/1 15/4/1 21/5/1 164/6/1 153/7/1 115/8/1 120/9/1 117/10/1 127/11/1 121/12/1 125/13/1 123/14/1 158/15/1 160/16/1 155/17/1 161/18/1 109/19/1 111/20/1 107/21/1
f 14/22/2 18/23/2 24/24/2 19/25/2
f 20/26/3 23/27/3 30/28/3 25/29/3
f 26/30/4 29/31/4 35/32/4 31/33/4
f 99/34/5 5/35/5 36/36/5 28/37/5 22/38/5 77/39/5 67/40/5 69/41/5 65/42/5 87/43/5 81/44/5 83/45/5 79/46/5 51/47/5 54/48/5 56/49/5 60/50/5 57/51/5 63/52/5 61/53/5 85/54/5
f 8/55/6 12/56/6 16/57/6 13/58/6
f 110/59/7 42/60/7 38/61/7 112/62/7
f 164/6/1 21/5/1 27/63/1 33/64/1 3/2/1 114/1/1 103/65/1 105/66/1 101/67/1 152/68/1 145/69/1 148/70/1 143/71/1 129/72/1 132/73/1 133/74/1 137/75/1 135/76/1 141/77/1 139/78/1 150/79/1
f 77/39/5 22/38/5 17/80/5 11/81/5 5/35/5 99/34/5 89/82/5 37/83/5 41/84/5 39/85/5 49/86/5 43/87/5 48/88/5 45/89/5 95/90/5 94/91/5 97/92/5 92/93/5 73/94/5 76/95/5 71/96/5
f 2/97/8 6/98/8 10/99/8 7/100/8
f 91/101/9 98/102/9 128/103/9 118/104/9
f 50/105/10 40/106/10 162/107/10 156/108/10
f 112/62/11 38/61/11 90/109/11 108/110/11
f 47/111/12 44/112/12 159/113/12 157/114/12
f 162/107/13 40/106/13 42/60/13 110/59/13
f 96/115/14 46/116/14 124/117/14 126/118/14
f 44/112/15 50/105/15 156/108/15 159/113/15
f 144/119/16 53/120/16 52/121/16 130/122/16
f 46/116/17 47/111/17 157/114/17 124/117/17
f 98/102/18 93/123/18 122/124/18 128/103/18
f 93/123/19 96/115/19 126/118/19 122/124/19
f 131/125/20 80/126/20 84/127/20 134/128/20
f 74/129/21 91/101/21 118/104/21 119/130/21
f 75/131/22 74/129/22 119/130/22 116/132/22
f 72/133/23 75/131/23 116/132/23 154/134/23
f 78/135/24 72/133/24 154/134/24 163/136/24
f 68/137/25 78/135/25 163/136/25 149/138/25
f 70/139/26 68/137/26 149/138/26 140/140/26
f 66/141/27 70/139/27 140/140/27 142/142/27
f 113/143/28 100/144/28 86/145/28 104/146/28
f 138/147/29 82/148/29 88/149/29 136/150/29
f 134/128/30 84/127/30 82/148/30 138/147/30
f 147/151/31 55/152/31 53/120/31 144/119/31
f 130/122/32 52/121/32 80/126/32 131/125/32
f 146/153/33 59/154/33 55/152/33 147/151/33
f 102/155/34 64/156/34 58/157/34 151/158/34
f 106/159/35 62/160/35 64/156/35 102/155/35
f 151/158/36 58/157/36 59/154/36 146/153/36
f 104/146/37 86/145/37 62/160/37 106/159/37
f 88/149/38 66/141/38 142/142/38 136/150/38
f 108/110/39 90/109/39 100/161/39 113/162/39
f 1/163/40 2/164/40 3/165/40
f 4/166/41 5/167/41 6/168/41
f 7/169/42 8/55/42 9/170/42
f 10/99/43 11/171/43 12/172/43
f 13/173/44 14/22/44 15/174/44
f 16/57/45 17/175/45 18/176/45
f 19/177/46 20/26/46 21/178/46
f 22/179/47 23/27/47 24/180/47
f 25/29/48 26/181/48 27/182/48
f 28/183/49 29/31/49 30/184/49
f 31/33/50 32/185/50 33/186/50
f 34/187/51 35/32/51 36/188/51
f 1/163/52 4/166/52 6/168/52 2/164/52
f 2/97/53 7/100/53 9/189/53 3/190/53
f 5/191/54 11/171/54 10/99/54 6/98/54
f 8/55/55 13/58/55 15/192/55 9/170/55
f 11/193/56 17/175/56 16/57/56 12/56/56
f 14/22/57 19/25/57 21/194/57 15/174/57
f 17/195/58 22/196/58 24/24/58 18/23/58
f 20/26/59 25/29/59 27/182/59 21/178/59
f 22/179/60 28/197/60 30/28/60 23/27/60
f 26/30/61 31/33/61 33/186/61 27/198/61
f 4/166/62 34/199/62 36/200/62 5/201/62
f 92/93/63 97/92/63 98/202/63 91/203/63
f 38/204/64 42/205/64 41/84/64 37/83/64
f 94/91/65 95/90/65 96/206/65 93/207/65
f 44/208/66 47/209/66 48/88/66 43/87/66
f 40/210/67 50/211/67 49/86/67 39/85/67
f 52/212/68 53/213/68 54/48/68 51/47/68
f 53/213/69 55/214/69 56/49/69 54/48/69
f 55/214/70 59/215/70 60/50/70 56/49/70
f 134/216/71 138/217/71 137/75/71 133/74/71
f 58/218/72 64/219/72 63/52/72 57/51/72
f 68/220/73 70/221/73 69/41/73 67/40/73
f 74/222/74 75/223/74 76/95/74 73/94/74
f 7/100/75 10/99/75 12/56/75 8/55/75
f 51/47/76 79/46/76 80/224/76 52/212/76
f 82/225/77 84/226/77 83/45/77 81/44/77
f 57/51/78 60/50/78 59/215/78 58/218/78
f 66/227/79 88/228/79 87/43/79 65/42/79
f 37/83/80 89/82/80 90/229/80 38/204/80
f 73/94/81 92/93/81 91/203/81 74/222/81
f 46/230/82 96/206/82 95/90/82 45/89/82
f 93/207/83 98/202/83 97/92/83 94/91/83
f 104/231/84 106/232/84 105/66/84 103/65/84
f 110/233/85 112/234/85 111/20/85 109/19/85
f 108/235/86 113/236/86 114/1/86 107/21/86
f 3/165/87 33/237/87 32/238/87 1/163/87
f 116/239/88 119/240/88 120/9/88 115/8/88
f 89/82/89 99/34/89 100/241/89 90/229/89
f 122/242/90 126/243/90 125/13/90 121/12/90
f 118/244/91 128/245/91 127/11/91 117/10/91
f 13/58/92 16/57/92 18/23/92 14/22/92
f 130/246/93 131/247/93 132/73/93 129/72/93
f 131/247/94 134/216/94 133/74/94 132/73/94
f 61/53/95 63/52/95 64/219/95 62/248/95
f 136/249/96 142/250/96 141/77/96 135/76/96
f 129/72/97 143/71/97 144/251/97 130/246/97
f 146/252/98 147/253/98 148/70/98 145/69/98
f 140/254/99 149/255/99 150/79/99 139/78/99
f 102/256/100 151/257/100 152/68/100 101/67/100
f 115/8/101 153/7/101 154/258/101 116/239/101
f 124/259/102 157/260/102 158/15/102 123/14/102
f 157/260/103 159/261/103 160/16/103 158/15/103
f 156/262/104 162/263/104 161/18/104 155/17/104
f 19/25/105 24/24/105 23/27/105 20/26/105
f 143/71/106 148/70/106 147/253/106 144/251/106
f 65/42/107 69/41/107 70/221/107 66/227/107
f 103/65/108 114/1/108 113/236/108 104/231/108
f 139/78/109 141/77/109 142/250/109 140/254/109
f 145/69/110 152/68/110 151/257/110 146/252/110
f 25/29/111 30/28/111 29/31/111 26/30/111
f 107/21/112 111/20/112 112/234/112 108/235/112
f 101/67/113 105/66/113 106/232/113 102/256/113
f 62/248/114 86/264/114 85/54/114 61/53/114
f 67/40/115 77/39/115 78/265/115 68/220/115
f 28/183/116 36/188/116 35/32/116 29/31/116
f 71/96/117 76/95/117 75/223/117 72/266/117
f 31/33/118 35/32/118 34/199/118 32/238/118
f 72/266/119 78/265/119 77/39/119 71/96/119
f 149/255/120 163/267/120 164/6/120 150/79/120
f 155/17/121 160/16/121 159/261/121 156/262/121
f 153/7/122 164/6/122 163/267/122 154/258/122
f 117/10/123 120/9/123 119/240/123 118/244/123
f 39/85/124 41/84/124 42/205/124 40/210/124
f 135/76/125 137/75/125 138/217/125 136/249/125
f 79/46/126 83/45/126 84/226/126 80/224/126
f 81/44/127 87/43/127 88/228/127 82/225/127
f 121/12/128 127/11/128 128/245/128 122/242/128
f 123/14/129 125/13/129 126/243/129 124/259/129
f 43/87/130 49/86/130 50/211/130 44/208/130
f 45/89/131 48/88/131 47/209/131 46/230/131
f 109/19/132 161/18/132 162/263/132 110/233/132
f 86/264/133 100/241/133 99/34/133 85/54/133
f 32/238/134 34/199/134 4/166/134 1/163/134
